<?xml version="1.0" encoding="UTF-8"?>
<svg width="164px" height="212px" viewBox="0 0 164 212" version="1.1" xmlns="http://www.w3.org/2000/svg" xmlns:xlink="http://www.w3.org/1999/xlink">
    <!-- Generator: Sketch 42 (36781) - http://www.bohemiancoding.com/sketch -->
    <title>Group</title>
    <desc>Created with Sketch.</desc>
    <defs>
        <path d="M131.914407,173.591895 L89.3162858,206.58668 L80.5009456,207.360503 L71.4607397,206.58668 L29.0855929,174.03475 L14,117.896382 L5.03982817,69.2490746 L5.0018942,49.277597 C5.00084806,48.7268259 5.27170091,47.9359078 5.62455417,47.4886025 L21.4442563,27.4342717 L30.274681,20.0912005 C37.9190558,13.7344069 51.8986874,6.46718242 61.4824529,3.86391209 L65.4458898,2.78731043 C67.0466489,2.35249089 69.6223157,1.56181727 71.1791666,1.02802405 L68.3443205,2 C75.0582391,-0.301982937 91.9317457,1.75174818 92.6556795,2 L89.8212744,1.02802405 C91.3866731,1.56483155 93.9582968,2.35383429 95.5541102,2.78731043 L102.405517,4.64838108 C110.401737,6.82042109 122.042712,12.8710495 128.419104,18.1734327 L139.555744,27.4342717 L156,48.2803378 L155.960172,69.2490746 L146.985321,117.897415 L131.914407,173.591895 Z" id="path-1"></path>
        <mask id="mask-3" maskContentUnits="userSpaceOnUse" maskUnits="objectBoundingBox" x="-2" y="-2" width="154.998109" height="210.441042">
            <rect x="3.00189118" y="-1.08053874" width="154.998109" height="210.441042" fill="white"></rect>
            <use xlink:href="#path-1" fill="black"></use>
        </mask>
    </defs>
    <g id="Page-1" stroke="none" stroke-width="1" fill="none" fill-rule="evenodd">
        <g id="Desktop-HD" transform="translate(-1114.000000, -764.000000)">
            <g id="Group" transform="translate(1115.000000, 766.000000)">
                <g id="Ears" transform="translate(0.000000, 84.000000)">
                    <polygon id="Path-7" stroke="#000000" stroke-width="2" fill="#E1CDB0" points="23.6010708 34.1532933 17.8051276 12.7370483 15.3908423 5.45826134 10.0868771 1.84719803 5.83872991 2.60589445 1.23403686 7.15392712 0.265282404 14.5985494 0.0883914341 22.7148046 0.737912963 29.3689454 3.70636455 37.2613229 7.71543254 41.0271659 12.8480346 44.6230276 17.2537253 47 21.9247525 46.9143184"></polygon>
                    <polygon id="Path-7-Copy-2" fill="#E3D0B5" points="23.6010708 36.2904929 18.7693504 18.4370901 16.7567096 12.3692143 12.3351209 9.35889349 8.79370257 9.99137191 4.95505394 13.7827863 4.14746309 19.9889088 4 26.7549302 4.54146604 32.302077 7.01608107 38.8814655 10.3581938 42.0208165 14.6369276 45.0184647 18.3096803 47 22.2036276 46.9285726"></polygon>
                    <polygon id="Path-7-Copy" stroke="#000000" stroke-width="2" fill="#EDE1D0" transform="translate(148.844731, 26.423599) scale(-1, -1) rotate(27.000000) translate(-148.844731, -26.423599) " points="160.601071 36.1532933 154.805128 14.7370483 152.390842 7.45826134 147.086877 3.84719803 142.83873 4.60589445 138.234037 9.15392712 137.265282 16.5985494 137.088391 24.7148046 137.737913 31.3689454 140.706365 39.2613229 144.715433 43.0271659 149.848035 46.6230276 154.253725 49 158.924752 48.9143184"></polygon>
                    <polygon id="Path-7-Copy-3" fill="#E4D1B5" transform="translate(148.783734, 28.428474) scale(-1, -1) rotate(27.000000) translate(-148.783734, -28.428474) " points="159.075515 36.9460814 154.001608 18.1977887 151.888085 11.8257646 147.244867 8.66455352 143.525937 9.3287345 139.494879 13.310191 138.646808 19.8273913 138.491953 26.932555 139.06056 32.7577489 141.659214 39.6669248 145.168847 42.9636337 149.66205 46.111537 153.518897 48.1923954 157.608026 48.1173877"></polygon>
                </g>
                <mask id="mask-2" fill="white">
                    <use xlink:href="#path-1"></use>
                </mask>
                <g id="Head-Shape">
                    <use fill="#EDE1D0" fill-rule="evenodd" xlink:href="#path-1"></use>
                    <use stroke="#000000" mask="url(#mask-3)" stroke-width="4" xlink:href="#path-1"></use>
                </g>
                <rect id="Rectangle-2-Copy" fill="#DCCAB0" opacity="0.445086051" mask="url(#mask-2)" transform="translate(49.004980, 186.004980) scale(-1, 1) rotate(45.000000) translate(-49.004980, -186.004980) " x="43.9873222" y="144.278637" width="10.0353166" height="83.4526871"></rect>
                <rect id="Rectangle-2-Copy-4" fill="#DCCAB0" opacity="0.445086051" mask="url(#mask-2)" transform="translate(49.004980, 186.004980) scale(-1, 1) rotate(45.000000) translate(-49.004980, -186.004980) " x="43.9873222" y="144.278637" width="10.0353166" height="83.4526871"></rect>
                <rect id="Rectangle-2-Copy-3" fill="#DCCAB0" opacity="0.445086051" mask="url(#mask-2)" transform="translate(114.221536, 182.836445) rotate(45.000000) translate(-114.221536, -182.836445) " x="109.203878" y="138.043328" width="10.0353166" height="89.5862326"></rect>
                <rect id="Rectangle-2-Copy-2" fill="#DCCAB0" opacity="0.445086051" mask="url(#mask-2)" transform="translate(78.241171, 206.017658) scale(-1, 1) rotate(90.000000) translate(-78.241171, -206.017658) " x="73.2235126" y="189.776487" width="10.0353166" height="32.4823417"></rect>
                <path d="M71.6591462,181.053805 C71.1091599,181.027604 70.8556746,180.594191 71.0835324,180.105973 L73.6183404,174.674781 C74.3178871,173.175901 76.2373098,171.978643 77.8796585,172.000289 L83.5232218,172.074671 C85.7314059,172.103774 88.2045057,173.780471 89.0525945,175.83311 L91.2182655,181.074707 C91.4302875,181.587866 91.1648274,181.983029 90.6063271,181.956423 L71.6591462,181.053805 Z" id="Path-9" fill="#E1CFB5" mask="url(#mask-2)" transform="translate(81.145518, 176.978846) scale(-1, 1) rotate(4.000000) translate(-81.145518, -176.978846) "></path>
                <g id="Hair" mask="url(#mask-2)" fill="#767676">
                    <g transform="translate(-7.000000, 46.000000)">
                        <path d="M160.525012,1.94677063 C160.660746,0.850900137 160.948736,0.835272993 161.170263,1.92776123 C161.170263,1.92776123 165.708108,24.0487318 167.243903,34.7183803 C168.779698,45.3880287 169.270781,59.0146755 169.270781,59.0146755 L152.632846,65.6651405 L160.525012,1.94677063 Z" id="Triangle-4-Copy-3" transform="translate(160.951813, 33.390860) rotate(174.000000) translate(-160.951813, -33.390860) "></path>
                        <path d="M12.5415045,2.14195364 C12.6928163,1.05025383 12.9934334,1.03800768 13.2149609,2.13049592 C13.2149609,2.13049592 17.7528056,24.2514665 19.2886007,34.9211149 C20.8243959,45.5907634 21.3154787,59.2174102 21.3154787,59.2174102 L3.74362154,65.6178235 L12.5415045,2.14195364 Z" id="Triangle-4-Copy-4" transform="translate(12.529550, 33.467477) scale(-1, 1) rotate(174.000000) translate(-12.529550, -33.467477) "></path>
                    </g>
                </g>
                <g id="WRINKLES" transform="translate(35.000000, 21.000000)" stroke="#E0D6C8" stroke-width="2">
                    <path d="M0.356502161,22.666848 C15.2852367,15.7065562 21.3561042,15.4645535 25.6029767,15.7338773 C29.8498492,16.0032011 33.6024643,19.6798131 49.3479315,21.1569859 C60.0680757,22.1627043 80.543829,13.8299114 92.1051323,27.9112867" id="Path-10" transform="translate(46.230817, 21.789567) rotate(-4.000000) translate(-46.230817, -21.789567) "></path>
                    <path d="M21.0179898,8.76919952 C53.2343713,-3.66120491 56.9409039,4.28835968 73.5544633,11.083867" id="Path-11" transform="translate(47.286227, 6.664616) scale(-1, 1) rotate(-3.000000) translate(-47.286227, -6.664616) "></path>
                </g>
                <g id="Eyes" transform="translate(33.000000, 84.000000)">
                    <path d="M60.6603931,7.52653404 C61.1955466,7.64721999 62.0699997,7.77559421 62.6244263,7.81402048 L69.7698487,8.30925627 C70.3194008,8.34734469 71.2085274,8.43130911 71.7539936,8.49658364 L77.2242291,9.15119256 C77.77049,9.21656218 78.6547782,9.22117226 79.2006289,9.16134842 L85.0215269,8.52339296 C85.5668015,8.46363227 86.4595542,8.3777417 87.0004812,8.33280255 L87.0480763,8.32884844 C87.595748,8.28334896 88.4913846,8.21165877 89.0365697,8.16964612 L91.1178325,8.00926141 C91.6683754,7.96683588 92.5517137,7.8540697 93.0995992,7.75581741 L94.472729,7.50957407 C95.0166856,7.41202634 95.891041,7.21878666 96.4266438,7.07770102 L95.6891092,7.27197845 C96.2242699,7.13100928 96.3397791,6.70433656 95.9505341,6.32234231 L92.2769198,2.7171591 C91.8861401,2.33365872 91.1509531,1.84598886 90.647542,1.63328753 L90.0891534,1.39735708 C89.5800527,1.18225173 88.7449312,0.855955891 88.2228083,0.668177603 L87.6868186,0.475412214 C87.1651654,0.28780286 86.2980219,0.117007228 85.741079,0.0935538413 L84.345249,0.0347741431 C83.7922999,0.0114889407 82.8883295,-0.0036725032 82.3428918,0.000773834306 L81.0677419,0.0111686913 C80.5148197,0.0156760417 79.6186503,0.0342456135 79.0660188,0.0526474173 L75.8133413,0.160956705 C75.2607423,0.179357423 74.3766053,0.289974731 73.8275674,0.41044058 L72.1215876,0.78475411 C71.5774739,0.904139532 70.6974649,1.0948026 70.157778,1.21023862 L67.7055156,1.73476386 C67.1650472,1.85036705 66.3422045,2.17567583 65.8710544,2.45930892 L64.7302258,3.14608948 C64.2575492,3.43064148 63.4980793,3.89194769 63.0189665,4.1856 L60.9607624,5.44709075 C59.5463775,6.31397923 59.7133867,7.31296848 61.3313317,7.67784178 L60.6603931,7.52653404 Z" id="RighBG" stroke="#000000" fill="#FFFFFF"></path>
                    <ellipse id="Oval" fill="#849679" cx="77.3218208" cy="4.60169061" rx="5.3218208" ry="4.60169061"></ellipse>
                    <ellipse id="Oval-Copy" fill="#000000" cx="77.2174253" cy="3.91737109" rx="2.21742533" ry="1.91737109"></ellipse>
                    <path d="M60.6603931,7.52653404 C61.1955466,7.64721999 62.0699997,7.77559421 62.6244263,7.81402048 L69.7698487,8.30925627 C70.3194008,8.34734469 71.2085274,8.4563106 71.7539936,8.55232598 L77.2242291,9.51522119 C77.77049,9.61137646 78.6547782,9.6171718 79.2006289,9.52795512 L85.0215269,8.57655725 C85.5668015,8.48743473 86.4595542,8.3777417 87.0004812,8.33280255 L87.0480763,8.32884844 C87.595748,8.28334896 88.4913846,8.21165877 89.0365697,8.16964612 L91.1178325,8.00926141 C91.6683754,7.96683588 92.5517137,7.8540697 93.0995992,7.75581741 L94.472729,7.50957407 C95.0166856,7.41202634 95.891041,7.21878666 96.4266438,7.07770102 L95.6891092,7.27197845 C96.2242699,7.13100928 96.3397791,6.70433656 95.9505341,6.32234231 L92.2769198,2.7171591 C91.8861401,2.33365872 91.1509531,1.84598886 90.647542,1.63328753 L90.0891534,1.39735708 C89.5800527,1.18225173 88.7449312,0.855955891 88.2228083,0.668177603 L87.6868186,0.475412214 C87.1651654,0.28780286 86.2980219,0.117007228 85.741079,0.0935538413 L84.345249,0.0347741431 C83.7922999,0.0114889407 82.8883295,-0.0036725032 82.3428918,0.000773834306 L81.0677419,0.0111686913 C80.5148197,0.0156760417 79.6186503,0.0342456135 79.0660188,0.0526474173 L75.8133413,0.160956705 C75.2607423,0.179357423 74.3766053,0.289974731 73.8275674,0.41044058 L72.1215876,0.78475411 C71.5774739,0.904139532 70.6974649,1.0948026 70.157778,1.21023862 L67.7055156,1.73476386 C67.1650472,1.85036705 66.3422045,2.17567583 65.8710544,2.45930892 L64.7302258,3.14608948 C64.2575492,3.43064148 63.4980793,3.89194769 63.0189665,4.1856 L60.9607624,5.44709075 C59.5463775,6.31397923 59.7133867,7.31296848 61.3313317,7.67784178 L60.6603931,7.52653404 Z" id="RightFront" stroke="#000000" transform="translate(78.213322, 4.795638) scale(-1, 1) translate(-78.213322, -4.795638) "></path>
                    <path d="M0.66039307,7.52653404 C1.19554659,7.64721999 2.06999966,7.77559421 2.62442633,7.81402048 L9.76984865,8.30925627 C10.3194008,8.34734469 11.2085274,8.43341217 11.7539936,8.50127254 L17.2242291,9.1818137 C17.77049,9.24977293 18.6547782,9.25448271 19.2006289,9.19218642 L25.0215269,8.527865 C25.5668015,8.46563447 26.4595542,8.3777417 27.0004812,8.33280255 L27.0480763,8.32884844 C27.595748,8.28334896 28.4913846,8.21165877 29.0365697,8.16964612 L31.1178325,8.00926141 C31.6683754,7.96683588 32.5517137,7.8540697 33.0995992,7.75581741 L34.472729,7.50957407 C35.0166856,7.41202634 35.891041,7.21878666 36.4266438,7.07770102 L35.6891092,7.27197845 C36.2242699,7.13100928 36.3397791,6.70433656 35.9505341,6.32234231 L32.2769198,2.7171591 C31.8861401,2.33365872 31.1509531,1.84598886 30.647542,1.63328753 L30.0891534,1.39735708 C29.5800527,1.18225173 28.7449312,0.855955891 28.2228083,0.668177603 L27.6868186,0.475412214 C27.1651654,0.28780286 26.2980219,0.117007228 25.741079,0.0935538413 L24.345249,0.0347741431 C23.7922999,0.0114889407 22.8883295,-0.0036725032 22.3428918,0.000773834306 L21.0677419,0.0111686913 C20.5148197,0.0156760417 19.6186503,0.0342456135 19.0660188,0.0526474173 L15.8133413,0.160956705 C15.2607423,0.179357423 14.3766053,0.289974731 13.8275674,0.41044058 L12.1215876,0.78475411 C11.5774739,0.904139532 10.6974649,1.0948026 10.157778,1.21023862 L7.70551562,1.73476386 C7.16504717,1.85036705 6.34220446,2.17567583 5.87105435,2.45930892 L4.73022578,3.14608948 C4.25754925,3.43064148 3.49807935,3.89194769 3.01896652,4.1856 L0.960762383,5.44709075 C-0.4536225,6.31397923 -0.286613272,7.31296848 1.33133173,7.67784178 L0.66039307,7.52653404 Z" id="LeftBG" stroke="#000000" fill="#FFFFFF"></path>
                    <ellipse id="Oval" fill="#849679" cx="17.3218208" cy="4.60169061" rx="5.3218208" ry="4.60169061"></ellipse>
                    <ellipse id="Oval-Copy" fill="#000000" cx="17.2174253" cy="3.91737109" rx="2.21742533" ry="1.91737109"></ellipse>
                    <path d="M0.66039307,7.52653404 C1.19554659,7.64721999 2.06999966,7.77559421 2.62442633,7.81402048 L9.76984865,8.30925627 C10.3194008,8.34734469 11.2027221,8.4268917 11.7629788,8.4891724 L14.16528,8.75622324 C14.7165032,8.81749976 15.6019461,8.84889593 16.1642344,8.82546244 L25.0079575,8.45689839 C25.5607263,8.43386164 26.4595542,8.3777417 27.0004812,8.33280255 L27.0480763,8.32884844 C27.595748,8.28334896 28.4913846,8.21165877 29.0365697,8.16964612 L31.1178325,8.00926141 C31.6683754,7.96683588 32.5517137,7.8540697 33.0995992,7.75581741 L34.472729,7.50957407 C35.0166856,7.41202634 35.891041,7.21878666 36.4266438,7.07770102 L35.6891092,7.27197845 C36.2242699,7.13100928 36.3397791,6.70433656 35.9505341,6.32234231 L32.2769198,2.7171591 C31.8861401,2.33365872 31.1509531,1.84598886 30.647542,1.63328753 L30.0891534,1.39735708 C29.5800527,1.18225173 28.7449312,0.855955891 28.2228083,0.668177603 L27.6868186,0.475412214 C27.1651654,0.28780286 26.2980219,0.117007228 25.741079,0.0935538413 L24.345249,0.0347741431 C23.7922999,0.0114889407 22.8883295,-0.0036725032 22.3428918,0.000773834306 L21.0677419,0.0111686913 C20.5148197,0.0156760417 19.6186503,0.0342456136 19.0660188,0.0526474173 L15.8133413,0.160956705 C15.2607423,0.179357423 14.3766053,0.289974731 13.8275674,0.41044058 L12.1215876,0.78475411 C11.5774739,0.904139532 10.6974649,1.0948026 10.157778,1.21023862 L7.70551562,1.73476386 C7.16504717,1.85036705 6.34220446,2.17567583 5.87105435,2.45930892 L4.73022578,3.14608948 C4.25754925,3.43064148 3.49807935,3.89194769 3.01896652,4.1856 L0.960762383,5.44709075 C-0.4536225,6.31397923 -0.286613272,7.31296848 1.33133173,7.67784178 L0.66039307,7.52653404 Z" id="LeftFront" stroke="#000000" transform="translate(18.213322, 4.416618) scale(-1, 1) translate(-18.213322, -4.416618) "></path>
                </g>
                <polygon id="Path-12" fill="#767676" points="31.2198317 83.8970861 43.0092813 77.0377341 67.7227188 77.4259066 70.9733468 73.6338544 49.154471 70.2355024 30 81.4218722"></polygon>
                <polygon id="Path-12-Copy" fill="#767676" transform="translate(115.302099, 79.058236) scale(-1, 1) rotate(-5.000000) translate(-115.302099, -79.058236) " points="96.0352575 85.8890274 107.824707 79.0296754 132.538145 79.4178479 135.788773 75.6257957 113.969897 72.2274438 94.8154258 83.4138135"></polygon>
                <path d="M54.2541236,174.673263 C54.113775,175.766796 54.763157,176.185361 55.7040902,175.608442 L62.9417868,171.170759 C64.8234585,170.017041 68.0815349,168.626748 70.2126518,168.067096 L77.7648117,166.083825 C78.8375823,165.802105 79.7620896,164.673179 79.8283752,163.584973 L79.8692613,162.913748 L80.4757717,156.776177 C80.5298695,156.228737 80.1493854,155.894322 79.6141026,156.032291 L77.5351947,156.56813 C76.4645898,156.844079 75.1973508,157.873579 74.7081435,158.86071 L74.5118656,159.256763 C74.0211333,160.246972 72.7596521,161.319977 71.723755,161.64416 L65.7907205,163.500898 C64.7416219,163.829213 63.1729597,164.629298 62.286401,165.288395 L54.7384237,170.899814 L54.2541236,174.673263 Z" id="Path-13" fill="#767676"></path>
                <path d="M83.2541236,174.673263 C83.113775,175.766796 83.763157,176.185361 84.7040902,175.608442 L91.9417868,171.170759 C93.8234585,170.017041 97.0815349,168.626748 99.2126518,168.067096 L106.764812,166.083825 C107.837582,165.802105 108.76209,164.673179 108.828375,163.584973 L108.869261,162.913748 L109.475772,156.776177 C109.529869,156.228737 109.149385,155.894322 108.614103,156.032291 L106.535195,156.56813 C105.46459,156.844079 104.197351,157.873579 103.708144,158.86071 L103.511866,159.256763 C103.021133,160.246972 101.759652,161.319977 100.723755,161.64416 L94.7907205,163.500898 C93.7416219,163.829213 92.1729597,164.629298 91.286401,165.288395 L83.7384237,170.899814 L83.2541236,174.673263 Z" id="Path-13-Copy" fill="#767676" transform="translate(96.286862, 166.219114) scale(-1, 1) translate(-96.286862, -166.219114) "></path>
                <path d="M81,107.936725 C79.9923763,131.711606 95.7774107,152.684945 71,142.607066" id="Path-8" stroke="#5F513C" stroke-width="2" opacity="0.323086504"></path>
            </g>
        </g>
    </g>
</svg>