<?xml version="1.0" encoding="UTF-8"?>
<svg width="173px" height="216px" viewBox="0 0 173 216" version="1.1" xmlns="http://www.w3.org/2000/svg" xmlns:xlink="http://www.w3.org/1999/xlink">
    <!-- Generator: Sketch 42 (36781) - http://www.bohemiancoding.com/sketch -->
    <title>Group 2</title>
    <desc>Created with Sketch.</desc>
    <defs>
        <path d="M88.5061006,16.101524 C68.4110479,37.5251908 68.7584202,60.507329 68.7584202,60.507329 C68.7584202,60.507329 55.1641197,79.4908417 47.3467822,98.6390793 C39.5294447,117.787317 37.0249341,134.390423 37.0249341,134.390423 L27.4194504,149.325044 C24.7294288,153.507494 24.1053425,160.6117 26.0263397,165.194702 L35.4935619,187.78104 C36.134363,189.309826 37.5291921,189.530361 38.6310743,188.303911 C38.6310743,188.303911 44.55831,180.956388 54.189756,174.938597 C63.8212019,168.920806 92.4264457,167.643891 92.4264457,167.643891 C92.4264457,167.643891 134.508125,166.310228 134.508125,130.428928 C134.508125,94.5476277 108.601153,-5.3221428 88.5061006,16.101524 Z" id="path-1"></path>
        <path d="M190.506101,16.101524 C170.411048,37.5251908 170.75842,60.507329 170.75842,60.507329 C170.75842,60.507329 157.16412,79.4908417 149.346782,98.6390793 C141.529445,117.787317 139.024934,134.390423 139.024934,134.390423 L129.41945,149.325044 C126.729429,153.507494 126.105342,160.6117 128.02634,165.194702 L137.493562,187.78104 C138.134363,189.309826 139.529192,189.530361 140.631074,188.303911 C140.631074,188.303911 146.55831,180.956388 156.189756,174.938597 C165.821202,168.920806 194.426446,167.643891 194.426446,167.643891 C194.426446,167.643891 236.508125,166.310228 236.508125,130.428928 C236.508125,94.5476277 210.601153,-5.3221428 190.506101,16.101524 Z" id="path-3"></path>
        <path d="M126.914407,173.591895 L84.3162858,206.58668 L75.5009456,207.360503 L66.4607397,206.58668 L24.0855929,174.03475 L9,117.896382 L0.0398281736,69.2490746 L0.00189420156,49.277597 C0.000848062925,48.7268259 0.27170091,47.9359078 0.624554165,47.4886025 L16.4442563,27.4342717 L25.274681,20.0912005 C32.9190558,13.7344069 46.8986874,6.46718242 56.4824529,3.86391209 L60.4458898,2.78731043 C62.0466489,2.35249089 64.6223157,1.56181727 66.1791666,1.02802405 L63.3443205,2 C70.0582391,-0.301982937 86.9317457,1.75174818 87.6556795,2 L84.8212744,1.02802405 C86.3866731,1.56483155 88.9582968,2.35383429 90.5541102,2.78731043 L97.4055172,4.64838108 C105.401737,6.82042109 117.042712,12.8710495 123.419104,18.1734327 L134.555744,27.4342717 L151,48.2803378 L150.960172,69.2490746 L141.985321,117.897415 L126.914407,173.591895 Z" id="path-5"></path>
    </defs>
    <g id="Page-1" stroke="none" stroke-width="1" fill="none" fill-rule="evenodd">
        <g id="Desktop-HD" transform="translate(-924.000000, -1212.000000)">
            <g id="Group-2" transform="translate(880.000000, 1212.000000)">
                <g id="Rectangle-3-Copy-2" transform="translate(0.000000, 18.000000)">
                    <mask id="mask-2" fill="white">
                        <use xlink:href="#path-1"></use>
                    </mask>
                    <use id="Mask" fill="#561300" transform="translate(79.709886, 101.107688) rotate(-18.000000) translate(-79.709886, -101.107688) " xlink:href="#path-1"></use>
                    <mask id="mask-4" fill="white">
                        <use xlink:href="#path-3"></use>
                    </mask>
                    <use id="Mask-Copy" fill="#561300" transform="translate(181.709886, 101.107688) scale(-1, 1) rotate(-18.000000) translate(-181.709886, -101.107688) " xlink:href="#path-3"></use>
                </g>
                <g id="Head-Copy" transform="translate(131.000000, 104.000000) scale(-1, 1) translate(-131.000000, -104.000000) translate(55.000000, 0.000000)">
                    <g id="Rectangle">
                        <mask id="mask-6" fill="white">
                            <use xlink:href="#path-5"></use>
                        </mask>
                        <use id="Head-Shape" fill="#F5C8B4" xlink:href="#path-5"></use>
                        <rect fill="#2A2D52" mask="url(#mask-6)" x="-12" y="-14" width="179" height="118.139982"></rect>
                        <rect id="Rectangle-2" fill="#2B2D52" mask="url(#mask-6)" transform="translate(16.322031, 130.737733) scale(-1, 1) rotate(15.000000) translate(-16.322031, -130.737733) " x="9.62990017" y="85.55997" width="13.3842609" height="90.355526"></rect>
                        <rect id="Rectangle-2-Copy-4" fill="#2B2D52" mask="url(#mask-6)" transform="translate(132.565668, 136.080058) rotate(15.000000) translate(-132.565668, -136.080058) " x="127.54801" y="94.665091" width="10.0353166" height="82.829934"></rect>
                        <polygon id="Rectangle-2-Copy" fill="#2B2D52" mask="url(#mask-6)" transform="translate(49.628688, 193.429294) scale(-1, 1) rotate(45.000000) translate(-49.628688, -193.429294) " points="43.3378086 160.929294 55.9195666 161.096238 53.3731252 225.929294 47.7710728 225.731626"></polygon>
                        <path d="M95.3220486,159.485962 L105.357365,159.485962 C105.357365,159.485962 106.649875,164.779633 106.649875,167.21901 C106.649875,169.658387 105.357365,224.485962 105.357365,224.485962 L100.287767,223.666014 L95.3220486,159.485962 Z" id="Rectangle-2-Copy-3" fill="#2B2D52" mask="url(#mask-6)" transform="translate(100.985962, 191.985962) rotate(45.000000) translate(-100.985962, -191.985962) "></path>
                        <g id="Group" mask="url(#mask-6)" fill="#2B2D52">
                            <g transform="translate(8.000000, 83.000000)">
                                <path d="M42.0212037,3.88579052 C36.6278746,0.0391311968 27.8865365,0.037008604 22.4902313,3.88579052 L3.71005152,17.2802918 C0.113629314,19.8453515 0.096886714,24.040274 3.65888358,26.6398622 L22.560042,40.4341552 C27.9148157,44.3421335 36.5896246,44.3472383 41.951393,40.4341552 L60.8525514,26.6398622 C64.4207143,24.0357739 64.3995866,19.8466217 60.8013835,17.2802918 L42.0212037,3.88579052 Z" id="Combined-Shape"></path>
                                <path d="M45.5765058,3.43316621 C40.0104946,-0.163515607 30.9838565,-0.161996514 25.4201961,3.43316621 L3.52171747,17.5836694 C-0.188524913,19.9811783 -0.208211165,23.9004906 3.47759437,26.3375975 L25.4832025,40.8880177 C31.0144162,44.5453347 39.974917,44.550207 45.5134994,40.8880177 L67.5191075,26.3375975 C71.2049814,23.9004454 71.1888686,19.9835316 67.4749844,17.5836694 L45.5765058,3.43316621 Z" id="Combined-Shape-Copy-4"></path>
                                <path d="M113.021204,3.88579052 C107.627875,0.0391311968 98.8865365,0.037008604 93.4902313,3.88579052 L74.7100515,17.2802918 C71.1136293,19.8453515 71.0968867,24.040274 74.6588836,26.6398622 L93.560042,40.4341552 C98.9148157,44.3421335 107.589625,44.3472383 112.951393,40.4341552 L131.852551,26.6398622 C135.420714,24.0357739 135.399587,19.8466217 131.801383,17.2802918 L113.021204,3.88579052 Z" id="Combined-Shape-Copy"></path>
                                <path d="M111.227025,3.6049675 C105.719971,-0.0865975531 96.7933321,-0.0879780771 91.2842188,3.6049675 L70.6020111,17.4689531 C66.930908,19.9298181 66.9129951,23.9537752 70.5590789,26.4547082 L91.3576407,40.720922 C96.8241448,44.4705234 105.680983,44.4747185 111.153603,40.720922 L131.952165,26.4547082 C135.599557,23.9528776 135.582607,19.9313406 131.909233,17.4689531 L111.227025,3.6049675 Z" id="Combined-Shape-Copy-5"></path>
                            </g>
                        </g>
                    </g>
                    <g id="Ears" transform="translate(0.000000, 3.000000)" fill="#2B2D52">
                        <path d="M148.947491,0.814594779 L151.031454,51.6639936 L137.019179,51.3055706 C137.019179,51.3055706 136.743591,29.8060855 138.281748,18.8851746 C139.819904,7.96426378 148.947491,0.814594779 148.947491,0.814594779 Z" id="Triangle-2-Copy" transform="translate(144.015727, 26.239294) scale(-1, 1) translate(-144.015727, -26.239294) "></path>
                        <path d="M11.9474907,0.814594779 L14.0314535,51.6639936 L0.0191789761,51.3055706 C0.0191789761,51.3055706 -0.256408927,29.8060855 1.28174753,18.8851746 C2.81990399,7.96426378 11.9474907,0.814594779 11.9474907,0.814594779 Z" id="Triangle-2-Copy-2"></path>
                    </g>
                </g>
                <path d="M132.427004,127 C131.41938,150.774881 145.777411,162.684945 121,152.607066" id="Path-8" stroke="#5F513C" stroke-width="2" opacity="0.479393116"></path>
                <g id="Mouth" transform="translate(131.500000, 182.500000) scale(-1, 1) translate(-131.500000, -182.500000) translate(111.000000, 172.000000)">
                    <path d="M0.439866353,12.2261877 C-0.110641394,12.2205242 -0.148486732,12.0269485 0.349308514,11.7966134 L5.18514553,9.55902103 C6.69064116,8.86241245 9.20967742,7.98670968 10.8386026,7.61226747 C10.8386026,7.61226747 17.2494194,5.9909282 20.4501424,6.00003825 C23.6508654,6.00914829 30.0493912,7.62242396 30.0493912,7.62242396 C31.8214058,8.03521204 34.5729977,9.05720558 36.2013799,9.90831769 L40.551545,12.1820333 C41.0439284,12.439389 40.9998221,12.6434568 40.4463014,12.6377624 L0.439866353,12.2261877 Z" id="Path-9" fill="#CC9788" transform="translate(20.446568, 9.318939) scale(-1, -1) translate(-20.446568, -9.318939) "></path>
                    <path d="M0.439866353,6.22618765 C-0.110641394,6.22052419 -0.148486732,6.0269485 0.349308514,5.79661343 L5.18514553,3.55902103 C6.69064116,2.86241245 9.24040806,2.12772758 10.8890853,1.92124479 C10.8890853,1.92124479 21.8097957,0.490318926 25.0105187,0.49942897 C28.2112418,0.508539014 30.3344842,1.4380522 30.3344842,1.4380522 C31.9490463,1.95266599 34.4833111,3.01032879 35.9834527,3.79441292 L40.551545,6.18203333 C41.0439284,6.439389 40.9998221,6.64345684 40.4463014,6.63776238 L0.439866353,6.22618765 Z" id="Path-9-Copy" fill="#DDA190" transform="translate(20.446568, 3.568632) scale(-1, 1) translate(-20.446568, -3.568632) "></path>
                    <path d="M15.1385185,19.8243377 C17.3043664,19.6097906 19.2670496,17.6915216 21.4328975,17.4769746 C23.5987454,17.2624276 25.8325569,18.7649954 27.9308043,18.5571448" id="Path-4" stroke="#000000" opacity="0.0829370471" transform="translate(21.534661, 18.640141) rotate(5.000000) translate(-21.534661, -18.640141) "></path>
                </g>
                <path d="M148.186931,105.949292 C146.646281,107.53389 147.008574,109.605145 148.99032,110.572731 L148.031743,110.104706 C153.437331,112.743981 161.910539,112.230834 166.931159,108.887003 C166.931159,108.887003 172.70418,105.376448 174.284022,103.374285 C175.095371,102.346049 178.916107,98.1081264 180.573325,93.8594558 C182.230544,89.6107852 180.77661,93.3319896 180.77661,93.3319896 C181.016261,92.1024157 179.8834,90.8895431 178.24792,90.6232276 L175.910514,90.2426133 C169.97318,89.2758 161.762693,91.9862786 157.561647,96.3071606 L148.186931,105.949292 Z" id="Path-14-Copy-4" stroke="#000000" stroke-width="2" fill="#FFFFFF" transform="translate(164.299127, 100.916668) rotate(15.000000) translate(-164.299127, -100.916668) "></path>
                <path d="M83.1869313,105.949292 C81.6462811,107.53389 82.0085736,109.605145 83.9903202,110.572731 L83.031743,110.104706 C88.4373314,112.743981 96.9105392,112.230834 101.931159,108.887003 C101.931159,108.887003 107.70418,105.376448 109.284022,103.374285 C110.095371,102.346049 113.916107,98.1081264 115.573325,93.8594558 C117.230544,89.6107852 115.77661,93.3319896 115.77661,93.3319896 C116.016261,92.1024157 114.8834,90.8895431 113.24792,90.6232276 L110.910514,90.2426133 C104.97318,89.2758 96.7626927,91.9862786 92.5616467,96.3071606 L83.1869313,105.949292 Z" id="Path-14-Copy-5" stroke="#000000" stroke-width="2" fill="#FFFFFF" transform="translate(99.299127, 100.916668) scale(-1, 1) rotate(15.000000) translate(-99.299127, -100.916668) "></path>
            </g>
        </g>
    </g>
</svg>