<?xml version="1.0" encoding="UTF-8"?>
<svg width="152px" height="222px" viewBox="0 0 152 222" version="1.1" xmlns="http://www.w3.org/2000/svg" xmlns:xlink="http://www.w3.org/1999/xlink">
    <!-- Generator: Sketch 42 (36781) - http://www.bohemiancoding.com/sketch -->
    <title>Group 2</title>
    <desc>Created with Sketch.</desc>
    <defs>
        <path d="M126.914407,173.591895 L84.3162858,206.58668 L75.5009456,207.360503 L66.4607397,206.58668 L24.0855929,174.03475 L9,117.896382 L0.0398281736,69.2490746 L0.00189420156,49.277597 C0.000848062925,48.7268259 0.27170091,47.9359078 0.624554165,47.4886025 L16.4442563,27.4342717 L25.274681,20.0912005 C32.9190558,13.7344069 46.8986874,6.46718242 56.4824529,3.86391209 L60.4458898,2.78731043 C62.0466489,2.35249089 64.6223157,1.56181727 66.1791666,1.02802405 L63.3443205,2 C70.0582391,-0.301982937 86.9317457,1.75174818 87.6556795,2 L84.8212744,1.02802405 C86.3866731,1.56483155 88.9582968,2.35383429 90.5541102,2.78731043 L97.4055172,4.64838108 C105.401737,6.82042109 117.042712,12.8710495 123.419104,18.1734327 L134.555744,27.4342717 L151,48.2803378 L150.960172,69.2490746 L141.985321,117.897415 L126.914407,173.591895 Z" id="path-1"></path>
    </defs>
    <g id="Page-1" stroke="none" stroke-width="1" fill="none" fill-rule="evenodd">
        <g id="Desktop-HD" transform="translate(-164.000000, -765.000000)">
            <g id="Group-2" transform="translate(164.000000, 765.000000)">
                <g id="Head">
                    <g id="Rectangle" transform="translate(0.000000, 14.000000)">
                        <mask id="mask-2" fill="white">
                            <use xlink:href="#path-1"></use>
                        </mask>
                        <use id="Head-Shape" fill="#EAD3B2" xlink:href="#path-1"></use>
                        <rect fill="#030303" mask="url(#mask-2)" x="-12" y="-14" width="179" height="132"></rect>
                        <polygon id="Triangle" fill="#000000" mask="url(#mask-2)" transform="translate(75.500000, 130.000000) scale(1, -1) translate(-75.500000, -130.000000) " points="75.5 114 151 146 0 146"></polygon>
                        <rect id="Rectangle-2-Copy-4" fill="#7D7B77" opacity="0.172724185" mask="url(#mask-2)" transform="translate(48.312602, 137.426721) scale(-1, 1) rotate(66.000000) translate(-48.312602, -137.426721) " x="44.7686593" y="108.681686" width="7.08788577" height="57.4900699"></rect>
                        <polygon id="Rectangle-2-Copy-5" fill="#7D7B77" opacity="0.172724185" mask="url(#mask-2)" transform="translate(101.949805, 135.819878) scale(-1, -1) rotate(66.000000) translate(-101.949805, -135.819878) " points="98.5699008 102.895075 103.353144 108.039086 105.911944 168.744681 97.987666 168.694332"></polygon>
                        <rect id="Rectangle-2" fill="#000000" mask="url(#mask-2)" transform="translate(20.220693, 142.550126) scale(-1, 1) rotate(15.000000) translate(-20.220693, -142.550126) " x="15.2030347" y="110.050126" width="10.0353166" height="65"></rect>
                        <rect id="Rectangle-2-Copy-4" fill="#000000" mask="url(#mask-2)" transform="translate(130.258305, 144.691255) rotate(15.000000) translate(-130.258305, -144.691255) " x="125.240646" y="112.191255" width="10.0353166" height="65"></rect>
                        <polygon id="Rectangle-2-Copy" fill="#000000" mask="url(#mask-2)" transform="translate(50.213263, 192.844718) scale(-1, 1) rotate(45.000000) translate(-50.213263, -192.844718) " points="44.7490984 160.344718 55.6774275 161.052809 54.784415 225.344718 44.7490984 225.344718"></polygon>
                        <polygon id="Rectangle-2-Copy-3" fill="#000000" mask="url(#mask-2)" transform="translate(100.852584, 191.852584) rotate(45.000000) translate(-100.852584, -191.852584) " points="95.3772955 159.352584 106.327873 159.475599 105.412612 224.352584 95.3772955 224.352584"></polygon>
                        <rect id="Rectangle-2-Copy-2" fill="#000000" mask="url(#mask-2)" transform="translate(73.241171, 206.017658) scale(-1, 1) rotate(90.000000) translate(-73.241171, -206.017658) " x="68.2235126" y="189.776487" width="10.0353166" height="32.4823417"></rect>
                    </g>
                    <g id="Ears" fill="#000000">
                        <path d="M148.947491,0 L151.031454,68.6639936 L137.019179,68.3055706 C137.019179,68.3055706 136.743591,46.8060855 138.281748,35.8851746 C139.819904,24.9642638 148.947491,0 148.947491,0 Z" id="Triangle-2-Copy" transform="translate(144.015727, 34.331997) scale(-1, 1) translate(-144.015727, -34.331997) "></path>
                        <path d="M13.4522156,0 L15.5361784,68.6639936 L0,68.6639936 C0,68.6639936 1.24831597,46.8060855 2.78647243,35.8851746 C4.32462888,24.9642638 13.4522156,0 13.4522156,0 Z" id="Triangle-2"></path>
                    </g>
                </g>
                <g id="Eyes" transform="translate(27.000000, 101.000000)" fill="#FFFFFF">
                    <path d="M14.3081556,21.8356043 L30.1961741,20.210331 L30.1961741,18.7953837 C30.1961741,18.7953837 22.5195395,13.7230595 18.5775733,11.4888999 C14.6356072,9.25474025 5.64966389,4.88333578 5.64966389,4.88333578 L3,6.81752066 L14.3081556,21.8356043 Z" id="Path-2" transform="translate(16.598087, 13.359470) rotate(-19.000000) translate(-16.598087, -13.359470) "></path>
                    <path d="M78.2303338,21.8356043 L94.0090121,20.221516 L94.0090121,18.8163062 C94.0090121,18.8163062 86.3852075,13.7788894 82.4703696,11.5601051 C78.5555318,9.3413208 69.6314291,5 69.6314291,5 L67,6.92087397 L78.2303338,21.8356043 Z" id="Path-2-Copy" transform="translate(80.504506, 13.417802) scale(-1, 1) rotate(-19.000000) translate(-80.504506, -13.417802) "></path>
                </g>
                <g id="Mouth" transform="translate(56.000000, 186.000000)" stroke="#353332" stroke-width="2">
                    <g id="Group" opacity="0.727015399">
                        <path d="M0.258394764,2.64586622 C11.5070301,-1.25220815 4.77330551,-0.0936838181 20.7460365,2.11580158" id="Path-3"></path>
                        <path d="M19.8265766,2.64586622 C31.0752119,-1.25220815 24.3414873,-0.0936838181 40.3142183,2.11580158" id="Path-3-Copy" transform="translate(30.070397, 1.365185) scale(-1, 1) translate(-30.070397, -1.365185) "></path>
                    </g>
                    <path d="M14.0308823,9.82224246 L26.8231682,8.55504956" id="Path-4" opacity="0.116281703" transform="translate(20.427025, 9.188646) rotate(5.000000) translate(-20.427025, -9.188646) "></path>
                </g>
            </g>
        </g>
    </g>
</svg>