<?xml version="1.0" encoding="UTF-8"?>
<svg width="177px" height="241px" viewBox="0 0 177 241" version="1.1" xmlns="http://www.w3.org/2000/svg" xmlns:xlink="http://www.w3.org/1999/xlink">
    <!-- Generator: Sketch 42 (36781) - http://www.bohemiancoding.com/sketch -->
    <title>Group</title>
    <desc>Created with Sketch.</desc>
    <defs>
        <path d="M120.534753,111.331617 C117.132651,125.282483 105.543352,144.18227 94.6599886,153.536311 L82.0471946,164.376765 C78.6994097,167.254121 72.3943144,169.58668 67.9869729,169.58668 L67.8926882,169.58668 C63.475227,169.58668 57.1630868,167.258689 53.8008963,164.392736 L41.4991436,153.90664 C30.567638,144.588553 18.9670073,125.724974 15.5844747,111.75741 L8.11084281,80.8963815 L0.0359818478,32.2490746 L0.00179594639,12.277597 C0.00085317161,11.7268259 0.341358011,10.9893737 0.768291491,10.6253727 L12.2806259,0.810022689 L68.4908997,26.6474641 L124.364982,1 L136.080516,11.2803378 L136.044623,32.2490746 L127.956533,80.8974152 L120.534753,111.331617 Z" id="path-1"></path>
    </defs>
    <g id="Page-1" stroke="none" stroke-width="1" fill="none" fill-rule="evenodd">
        <g id="Desktop-HD" transform="translate(-540.000000, -1322.000000)">
            <g id="Group" transform="translate(537.000000, 1322.000000)">
                <g id="Head">
                    <g id="HairLeft" transform="translate(0.000000, 69.000000)">
                        <path d="M26.4080872,1.899048 C26.8287317,0.884795621 27.2856542,0.949747132 27.4282462,2.05349027 C27.4282462,2.05349027 29.8067166,20.0304864 30.266452,28.1985017 C30.7261874,36.3665169 30.3235613,56.0959643 30.3235613,56.0959643 L15.8594671,56.1332702 C15.8594671,56.1332702 15.5981583,38.4847691 17.0566176,29.52001 C18.5150768,20.5552508 26.4080872,1.899048 26.4080872,1.899048 Z" id="Triangle-2-Copy-15" fill="#A11E0F" transform="translate(23.163998, 28.656581) rotate(197.000000) translate(-23.163998, -28.656581) "></path>
                        <path d="M26.4071926,21.8988822 C26.8278371,20.8846298 27.2847596,20.9495813 27.4273516,22.0533245 C27.4273516,22.0533245 29.805822,40.0303206 30.2655574,48.1983359 C30.7252928,56.3663511 30.3226667,76.0957984 30.3226667,76.0957984 L15.8585725,76.1331044 C15.8585725,76.1331044 15.5972637,58.4846033 17.055723,49.5198442 C18.5141822,40.555085 26.4071926,21.8988822 26.4071926,21.8988822 Z" id="Triangle-2-Copy-16" fill="#AB1F10" transform="translate(23.163103, 48.656415) rotate(184.000000) translate(-23.163103, -48.656415) "></path>
                        <path d="M29.2517522,49.8988822 C29.6723967,48.8846298 30.1293192,48.9495813 30.2719112,50.0533245 C30.2719112,50.0533245 32.6503815,68.0303206 33.1101169,76.1983359 C33.5698524,84.3663511 33.1672263,104.095798 33.1672263,104.095798 L18.703132,104.133104 C18.703132,104.133104 18.4418233,86.4846033 19.9002825,77.5198442 C21.3587418,68.555085 29.2517522,49.8988822 29.2517522,49.8988822 Z" id="Triangle-2-Copy-17" fill="#AB1F10" transform="translate(26.007663, 76.656415) rotate(184.000000) translate(-26.007663, -76.656415) "></path>
                        <path d="M38.7336175,70.8988822 C39.154262,69.8846298 39.6111845,69.9495813 39.7537765,71.0533245 C39.7537765,71.0533245 42.1322468,89.0303206 42.5919822,97.1983359 C43.0517176,105.366351 42.6490916,125.095798 42.6490916,125.095798 L28.1849973,125.133104 C28.1849973,125.133104 27.9236886,107.484603 29.3821478,98.5198442 C30.8406071,89.555085 38.7336175,70.8988822 38.7336175,70.8988822 Z" id="Triangle-2-Copy-18" fill="#AB1F10" transform="translate(35.489528, 97.656415) rotate(184.000000) translate(-35.489528, -97.656415) "></path>
                        <path d="M29.2517522,60.8988822 C29.6723967,59.8846298 30.1293192,59.9495813 30.2719112,61.0533245 C30.2719112,61.0533245 32.6503815,79.0303206 33.1101169,87.1983359 C33.5698524,95.3663511 33.1672263,115.095798 33.1672263,115.095798 L18.703132,115.133104 C18.703132,115.133104 18.4418233,97.4846033 19.9002825,88.5198442 C21.3587418,79.555085 29.2517522,60.8988822 29.2517522,60.8988822 Z" id="Triangle-2-Copy-19" fill="#AB1F10" transform="translate(26.007663, 87.656415) rotate(184.000000) translate(-26.007663, -87.656415) "></path>
                        <path d="M20.7180734,47.8988822 C21.138718,46.8846298 21.5956404,46.9495813 21.7382324,48.0533245 C21.7382324,48.0533245 24.1167028,66.0303206 24.5764382,74.1983359 C25.0361736,82.3663511 24.6335476,102.095798 24.6335476,102.095798 L10.1694533,102.133104 C10.1694533,102.133104 9.90814455,84.4846033 11.3666038,75.5198442 C12.825063,66.555085 20.7180734,47.8988822 20.7180734,47.8988822 Z" id="Triangle-2-Copy-20" fill="#AB1F10" transform="translate(17.473984, 74.656415) rotate(184.000000) translate(-17.473984, -74.656415) "></path>
                        <path d="M49.1636693,87.8988822 C49.5843138,86.8846298 50.0412363,86.9495813 50.1838283,88.0533245 C50.1838283,88.0533245 52.5622986,106.030321 53.022034,114.198336 C53.4817695,122.366351 53.0791434,142.095798 53.0791434,142.095798 L38.6150491,142.133104 C38.6150491,142.133104 38.3537404,124.484603 39.8121996,115.519844 C41.2706589,106.555085 49.1636693,87.8988822 49.1636693,87.8988822 Z" id="Triangle-2-Copy-21" fill="#AB1F10" transform="translate(45.919580, 114.656415) rotate(184.000000) translate(-45.919580, -114.656415) "></path>
                        <path d="M39.681804,97.8988822 C40.1024485,96.8846298 40.559371,96.9495813 40.701963,98.0533245 C40.701963,98.0533245 43.0804334,116.030321 43.5401688,124.198336 C43.9999042,132.366351 43.5972781,152.095798 43.5972781,152.095798 L29.1331839,152.133104 C29.1331839,152.133104 28.8718751,134.484603 30.3303344,125.519844 C31.7887936,116.555085 39.681804,97.8988822 39.681804,97.8988822 Z" id="Triangle-2-Copy-22" fill="#AB1F10" transform="translate(36.437715, 124.656415) rotate(184.000000) translate(-36.437715, -124.656415) "></path>
                        <path d="M20.7180734,87.8988822 C21.138718,86.8846298 21.5956404,86.9495813 21.7382324,88.0533245 C21.7382324,88.0533245 24.1167028,106.030321 24.5764382,114.198336 C25.0361736,122.366351 24.6335476,142.095798 24.6335476,142.095798 L10.1694533,142.133104 C10.1694533,142.133104 9.90814455,124.484603 11.3666038,115.519844 C12.825063,106.555085 20.7180734,87.8988822 20.7180734,87.8988822 Z" id="Triangle-2-Copy-23" fill="#AB1F10" transform="translate(17.473984, 114.656415) rotate(184.000000) translate(-17.473984, -114.656415) "></path>
                        <path d="M30.1999387,87.8988822 C30.6205833,86.8846298 31.0775057,86.9495813 31.2200977,88.0533245 C31.2200977,88.0533245 33.5985681,106.030321 34.0583035,114.198336 C34.5180389,122.366351 34.1154128,142.095798 34.1154128,142.095798 L19.6513186,142.133104 C19.6513186,142.133104 19.3900098,124.484603 20.8484691,115.519844 C22.3069283,106.555085 30.1999387,87.8988822 30.1999387,87.8988822 Z" id="Triangle-2-Copy-24" fill="#AB1F10" transform="translate(26.955849, 114.656415) rotate(184.000000) translate(-26.955849, -114.656415) "></path>
                        <path d="M20.7187653,57.8989918 C21.1394098,56.8847394 21.5963323,56.9496909 21.7389243,58.053434 C21.7389243,58.053434 24.1173947,76.0304302 24.5771301,84.1984455 C25.0368655,92.3664607 24.6342394,112.095908 24.6342394,112.095908 L10.1701452,112.133214 C10.1701452,112.133214 9.90883642,94.4847129 11.3672957,85.5199537 C12.8257549,76.5551946 20.7187653,57.8989918 20.7187653,57.8989918 Z" id="Triangle-2-Copy-25" fill="#AB1F10" transform="translate(17.474676, 84.656524) rotate(194.000000) translate(-17.474676, -84.656524) "></path>
                        <path d="M20.7192985,37.899165 C21.139943,36.8849126 21.5968655,36.9498642 21.7394575,38.0536073 C21.7394575,38.0536073 24.1179279,56.0306035 24.5776633,64.1986187 C25.0373987,72.366634 24.6347726,92.0960813 24.6347726,92.0960813 L10.1706784,92.1333873 C10.1706784,92.1333873 9.90936963,74.4848862 11.3678289,65.520127 C12.8262881,56.5553678 20.7192985,37.899165 20.7192985,37.899165 Z" id="Triangle-2-Copy-26" fill="#AB1F10" transform="translate(17.475209, 64.656698) rotate(202.000000) translate(-17.475209, -64.656698) "></path>
                        <path d="M20.7192985,17.899165 C21.139943,16.8849126 21.5968655,16.9498642 21.7394575,18.0536073 C21.7394575,18.0536073 24.1179279,36.0306035 24.5776633,44.1986187 C25.0373987,52.366634 24.6347726,72.0960813 24.6347726,72.0960813 L10.1706784,72.1333873 C10.1706784,72.1333873 9.90936963,54.4848862 11.3678289,45.520127 C12.8262881,36.5553678 20.7192985,17.899165 20.7192985,17.899165 Z" id="Triangle-2-Copy-27" fill="#AB1F10" transform="translate(17.475209, 44.656698) rotate(202.000000) translate(-17.475209, -44.656698) "></path>
                        <path d="M49.1648944,107.899165 C49.5855389,106.884913 50.0424614,106.949864 50.1850534,108.053607 C50.1850534,108.053607 52.5635237,126.030603 53.0232591,134.198619 C53.4829945,142.366634 53.0803685,162.096081 53.0803685,162.096081 L38.6162742,162.133387 C38.6162742,162.133387 38.3549655,144.484886 39.8134247,135.520127 C41.2718839,126.555368 49.1648944,107.899165 49.1648944,107.899165 Z" id="Triangle-2-Copy-28" fill="#AB1F10" transform="translate(45.920805, 134.656698) rotate(202.000000) translate(-45.920805, -134.656698) "></path>
                        <path d="M55.4074701,106.45553 C55.8281147,105.441278 56.2850371,105.50623 56.4276291,106.609973 C56.4276291,106.609973 58.8060995,124.586969 59.2658349,132.754984 C59.7255703,140.922999 59.3229443,160.652447 59.3229443,160.652447 L44.85885,160.689753 C44.85885,160.689753 44.5975413,143.041252 46.0560005,134.076492 C47.5144597,125.111733 55.4074701,106.45553 55.4074701,106.45553 Z" id="Triangle-2-Copy-29" fill="#AB1F10" transform="translate(52.163381, 133.213063) rotate(173.000000) translate(-52.163381, -133.213063) "></path>
                        <path d="M61.0975688,117.45553 C61.5182133,116.441278 61.9751358,116.50623 62.1177278,117.609973 C62.1177278,117.609973 64.4961982,135.586969 64.9559336,143.754984 C65.415669,151.922999 65.0130429,171.652447 65.0130429,171.652447 L50.5489487,171.689753 C50.5489487,171.689753 50.2876399,154.041252 51.7460992,145.076492 C53.2045584,136.111733 61.0975688,117.45553 61.0975688,117.45553 Z" id="Triangle-2-Copy-30" fill="#AB1F10" transform="translate(57.853479, 144.213063) scale(-1, 1) rotate(173.000000) translate(-57.853479, -144.213063) "></path>
                        <path d="M71.5276206,108.45553 C71.9482652,107.441278 72.4051876,107.50623 72.5477796,108.609973 C72.5477796,108.609973 74.92625,126.586969 75.3859854,134.754984 C75.8457208,142.922999 75.4430947,162.652447 75.4430947,162.652447 L60.9790005,162.689753 C60.9790005,162.689753 60.7176917,145.041252 62.176151,136.076492 C63.6346102,127.111733 71.5276206,108.45553 71.5276206,108.45553 Z" id="Triangle-2-Copy-31" fill="#AB1F10" transform="translate(68.283531, 135.213063) scale(-1, 1) rotate(173.000000) translate(-68.283531, -135.213063) "></path>
                    </g>
                    <g id="HairLeft-Copy" transform="translate(143.500000, 156.000000) scale(-1, 1) translate(-143.500000, -156.000000) translate(104.000000, 70.000000)" fill="#A32200">
                        <path d="M26.4080872,1.899048 C26.8287317,0.884795621 27.2856542,0.949747132 27.4282462,2.05349027 C27.4282462,2.05349027 29.8067166,20.0304864 30.266452,28.1985017 C30.7261874,36.3665169 30.3235613,56.0959643 30.3235613,56.0959643 L15.8594671,56.1332702 C15.8594671,56.1332702 15.5981583,38.4847691 17.0566176,29.52001 C18.5150768,20.5552508 26.4080872,1.899048 26.4080872,1.899048 Z" id="Triangle-2-Copy-15" transform="translate(23.163998, 28.656581) rotate(197.000000) translate(-23.163998, -28.656581) "></path>
                        <path d="M26.4071926,21.8988822 C26.8278371,20.8846298 27.2847596,20.9495813 27.4273516,22.0533245 C27.4273516,22.0533245 29.805822,40.0303206 30.2655574,48.1983359 C30.7252928,56.3663511 30.3226667,76.0957984 30.3226667,76.0957984 L15.8585725,76.1331044 C15.8585725,76.1331044 15.5972637,58.4846033 17.055723,49.5198442 C18.5141822,40.555085 26.4071926,21.8988822 26.4071926,21.8988822 Z" id="Triangle-2-Copy-16" transform="translate(23.163103, 48.656415) rotate(184.000000) translate(-23.163103, -48.656415) "></path>
                        <path d="M29.2517522,49.8988822 C29.6723967,48.8846298 30.1293192,48.9495813 30.2719112,50.0533245 C30.2719112,50.0533245 32.6503815,68.0303206 33.1101169,76.1983359 C33.5698524,84.3663511 33.1672263,104.095798 33.1672263,104.095798 L18.703132,104.133104 C18.703132,104.133104 18.4418233,86.4846033 19.9002825,77.5198442 C21.3587418,68.555085 29.2517522,49.8988822 29.2517522,49.8988822 Z" id="Triangle-2-Copy-17" transform="translate(26.007663, 76.656415) rotate(184.000000) translate(-26.007663, -76.656415) "></path>
                        <path d="M38.7336175,70.8988822 C39.154262,69.8846298 39.6111845,69.9495813 39.7537765,71.0533245 C39.7537765,71.0533245 42.1322468,89.0303206 42.5919822,97.1983359 C43.0517176,105.366351 42.6490916,125.095798 42.6490916,125.095798 L28.1849973,125.133104 C28.1849973,125.133104 27.9236886,107.484603 29.3821478,98.5198442 C30.8406071,89.555085 38.7336175,70.8988822 38.7336175,70.8988822 Z" id="Triangle-2-Copy-18" transform="translate(35.489528, 97.656415) rotate(184.000000) translate(-35.489528, -97.656415) "></path>
                        <path d="M29.2517522,60.8988822 C29.6723967,59.8846298 30.1293192,59.9495813 30.2719112,61.0533245 C30.2719112,61.0533245 32.6503815,79.0303206 33.1101169,87.1983359 C33.5698524,95.3663511 33.1672263,115.095798 33.1672263,115.095798 L18.703132,115.133104 C18.703132,115.133104 18.4418233,97.4846033 19.9002825,88.5198442 C21.3587418,79.555085 29.2517522,60.8988822 29.2517522,60.8988822 Z" id="Triangle-2-Copy-19" transform="translate(26.007663, 87.656415) rotate(184.000000) translate(-26.007663, -87.656415) "></path>
                        <path d="M20.7180734,47.8988822 C21.138718,46.8846298 21.5956404,46.9495813 21.7382324,48.0533245 C21.7382324,48.0533245 24.1167028,66.0303206 24.5764382,74.1983359 C25.0361736,82.3663511 24.6335476,102.095798 24.6335476,102.095798 L10.1694533,102.133104 C10.1694533,102.133104 9.90814455,84.4846033 11.3666038,75.5198442 C12.825063,66.555085 20.7180734,47.8988822 20.7180734,47.8988822 Z" id="Triangle-2-Copy-20" transform="translate(17.473984, 74.656415) rotate(184.000000) translate(-17.473984, -74.656415) "></path>
                        <path d="M49.1636693,87.8988822 C49.5843138,86.8846298 50.0412363,86.9495813 50.1838283,88.0533245 C50.1838283,88.0533245 52.5622986,106.030321 53.022034,114.198336 C53.4817695,122.366351 53.0791434,142.095798 53.0791434,142.095798 L38.6150491,142.133104 C38.6150491,142.133104 38.3537404,124.484603 39.8121996,115.519844 C41.2706589,106.555085 49.1636693,87.8988822 49.1636693,87.8988822 Z" id="Triangle-2-Copy-21" transform="translate(45.919580, 114.656415) rotate(184.000000) translate(-45.919580, -114.656415) "></path>
                        <path d="M39.681804,97.8988822 C40.1024485,96.8846298 40.559371,96.9495813 40.701963,98.0533245 C40.701963,98.0533245 43.0804334,116.030321 43.5401688,124.198336 C43.9999042,132.366351 43.5972781,152.095798 43.5972781,152.095798 L29.1331839,152.133104 C29.1331839,152.133104 28.8718751,134.484603 30.3303344,125.519844 C31.7887936,116.555085 39.681804,97.8988822 39.681804,97.8988822 Z" id="Triangle-2-Copy-22" transform="translate(36.437715, 124.656415) rotate(184.000000) translate(-36.437715, -124.656415) "></path>
                        <path d="M20.7180734,87.8988822 C21.138718,86.8846298 21.5956404,86.9495813 21.7382324,88.0533245 C21.7382324,88.0533245 24.1167028,106.030321 24.5764382,114.198336 C25.0361736,122.366351 24.6335476,142.095798 24.6335476,142.095798 L10.1694533,142.133104 C10.1694533,142.133104 9.90814455,124.484603 11.3666038,115.519844 C12.825063,106.555085 20.7180734,87.8988822 20.7180734,87.8988822 Z" id="Triangle-2-Copy-23" transform="translate(17.473984, 114.656415) rotate(184.000000) translate(-17.473984, -114.656415) "></path>
                        <path d="M30.1999387,87.8988822 C30.6205833,86.8846298 31.0775057,86.9495813 31.2200977,88.0533245 C31.2200977,88.0533245 33.5985681,106.030321 34.0583035,114.198336 C34.5180389,122.366351 34.1154128,142.095798 34.1154128,142.095798 L19.6513186,142.133104 C19.6513186,142.133104 19.3900098,124.484603 20.8484691,115.519844 C22.3069283,106.555085 30.1999387,87.8988822 30.1999387,87.8988822 Z" id="Triangle-2-Copy-24" transform="translate(26.955849, 114.656415) rotate(184.000000) translate(-26.955849, -114.656415) "></path>
                        <path d="M19.7705788,50.8989918 C20.1912233,49.8847394 20.6481458,49.9496909 20.7907378,51.053434 C20.7907378,51.053434 23.1692081,69.0304302 23.6289435,77.1984455 C24.0886789,85.3664607 23.6860529,105.095908 23.6860529,105.095908 L9.22195863,105.133214 C9.22195863,105.133214 8.96064989,87.4847129 10.4191091,78.5199537 C11.8775684,69.5551946 19.7705788,50.8989918 19.7705788,50.8989918 Z" id="Triangle-2-Copy-25" transform="translate(16.526489, 77.656524) rotate(194.000000) translate(-16.526489, -77.656524) "></path>
                        <path d="M20.7192985,37.899165 C21.139943,36.8849126 21.5968655,36.9498642 21.7394575,38.0536073 C21.7394575,38.0536073 24.1179279,56.0306035 24.5776633,64.1986187 C25.0373987,72.366634 24.6347726,92.0960813 24.6347726,92.0960813 L10.1706784,92.1333873 C10.1706784,92.1333873 9.90936963,74.4848862 11.3678289,65.520127 C12.8262881,56.5553678 20.7192985,37.899165 20.7192985,37.899165 Z" id="Triangle-2-Copy-26" transform="translate(17.475209, 64.656698) rotate(202.000000) translate(-17.475209, -64.656698) "></path>
                        <path d="M20.7192985,17.899165 C21.139943,16.8849126 21.5968655,16.9498642 21.7394575,18.0536073 C21.7394575,18.0536073 24.1179279,36.0306035 24.5776633,44.1986187 C25.0373987,52.366634 24.6347726,72.0960813 24.6347726,72.0960813 L10.1706784,72.1333873 C10.1706784,72.1333873 9.90936963,54.4848862 11.3678289,45.520127 C12.8262881,36.5553678 20.7192985,17.899165 20.7192985,17.899165 Z" id="Triangle-2-Copy-27" transform="translate(17.475209, 44.656698) rotate(202.000000) translate(-17.475209, -44.656698) "></path>
                        <path d="M49.1648944,97.899165 C49.5855389,96.8849126 50.0424614,96.9498642 50.1850534,98.0536073 C50.1850534,98.0536073 52.5635237,116.030603 53.0232591,124.198619 C53.4829945,132.366634 53.0803685,152.096081 53.0803685,152.096081 L38.6162742,152.133387 C38.6162742,152.133387 38.3549655,134.484886 39.8134247,125.520127 C41.2718839,116.555368 49.1648944,97.899165 49.1648944,97.899165 Z" id="Triangle-2-Copy-28" transform="translate(45.920805, 124.656698) rotate(202.000000) translate(-45.920805, -124.656698) "></path>
                        <path d="M55.4074701,116.45553 C55.8281147,115.441278 56.2850371,115.50623 56.4276291,116.609973 C56.4276291,116.609973 58.8060995,134.586969 59.2658349,142.754984 C59.7255703,150.922999 59.3229443,170.652447 59.3229443,170.652447 L44.85885,170.689753 C44.85885,170.689753 44.5975413,153.041252 46.0560005,144.076492 C47.5144597,135.111733 55.4074701,116.45553 55.4074701,116.45553 Z" id="Triangle-2-Copy-29" transform="translate(52.163381, 143.213063) rotate(173.000000) translate(-52.163381, -143.213063) "></path>
                        <path d="M61.0975688,95.4555304 C61.5182133,94.441278 61.9751358,94.5062295 62.1177278,95.6099726 C62.1177278,95.6099726 64.4961982,113.586969 64.9559336,121.754984 C65.415669,129.922999 65.0130429,149.652447 65.0130429,149.652447 L50.5489487,149.689753 C50.5489487,149.689753 50.2876399,132.041252 51.7460992,123.076492 C53.2045584,114.111733 61.0975688,95.4555304 61.0975688,95.4555304 Z" id="Triangle-2-Copy-30" transform="translate(57.853479, 122.213063) scale(-1, 1) rotate(173.000000) translate(-57.853479, -122.213063) "></path>
                        <path d="M71.5276206,108.45553 C71.9482652,107.441278 72.4051876,107.50623 72.5477796,108.609973 C72.5477796,108.609973 74.92625,126.586969 75.3859854,134.754984 C75.8457208,142.922999 75.4430947,162.652447 75.4430947,162.652447 L60.9790005,162.689753 C60.9790005,162.689753 60.7176917,145.041252 62.176151,136.076492 C63.6346102,127.111733 71.5276206,108.45553 71.5276206,108.45553 Z" id="Triangle-2-Copy-31" transform="translate(68.283531, 135.213063) scale(-1, 1) rotate(173.000000) translate(-68.283531, -135.213063) "></path>
                    </g>
                    <g id="Rectangle" transform="translate(24.652850, 51.000000)">
                        <mask id="mask-2" fill="white">
                            <use xlink:href="#path-1"></use>
                        </mask>
                        <use id="Head-Shape" stroke="#000000" fill="#DFD5C7" xlink:href="#path-1"></use>
                        <rect fill="#030303" mask="url(#mask-2)" x="-15.1709845" y="-51" width="169.725389" height="132"></rect>
                        <polygon id="Triangle" fill="#000000" mask="url(#mask-2)" transform="translate(67.795337, 98.771650) scale(1, -1) translate(-67.795337, -98.771650) " points="67.7953368 77 139.38342 120.5433 -3.79274611 120.5433"></polygon>
                        <polygon id="Rectangle-2" fill="#000000" mask="url(#mask-2)" transform="translate(15.023354, 105.918929) scale(-1, 1) rotate(15.000000) translate(-15.023354, -105.918929) " points="8.91456524 73.4189291 21.1321432 73.4189291 21.1321432 138.418929 21.0889042 121.336981"></polygon>
                        <polygon id="Rectangle-2-Copy-4" fill="#000000" mask="url(#mask-2)" transform="translate(119.716424, 107.691255) rotate(15.000000) translate(-119.716424, -107.691255) " points="114.958748 75.1912549 124.4741 75.1912549 124.4741 140.191255 124.284279 111.896436"></polygon>
                    </g>
                    <g id="TopHairLeft-Copy" transform="translate(93.795337, 67.500000) scale(-1, 1) translate(-93.795337, -67.500000) translate(28.295337, 39.000000)">
                        <path d="M17.1705901,27.8535435 C15.8188056,34.4225483 14.6784796,49.1673148 14.6784796,49.1673148 C14.5866299,50.2727914 15.202721,50.6509908 16.0513769,50.0144775 C16.0513769,50.0144775 29.1104596,40.425043 34.0867374,34.0213371 C33.8074676,37.0304853 33.6422101,39.1673148 33.6422101,39.1673148 C33.5503605,40.2727914 34.1664516,40.6509908 35.0151075,40.0144775 C35.0151075,40.0144775 37.5661439,38.1412221 40.8428517,35.4977035 C37.3344974,43.6299368 32.8407476,55.3268063 32.8407476,55.3268063 C32.4478601,56.3401026 32.8058389,56.6427289 33.6424238,55.9928755 C33.6424238,55.9928755 49.3382402,43.9861603 54.8514349,36.9915294 C55.1113698,36.661748 55.3771454,36.3132337 55.6476334,35.948486 C54.0389031,44.1159984 52.4695511,53.4485817 52.4695511,53.4485817 C52.2850094,54.5258846 52.694825,54.7434027 53.385017,53.9243098 C53.385017,53.9243098 66.3708495,38.7383016 70.3846526,30.6876255 C74.3984558,22.6369493 79.3210487,5.767066 79.3210487,5.767066 L63.0549849,1.46845422 C51.8418753,-1.49481983 34.2096364,0.0229499421 24.5513521,6.36323001 C24.5513521,6.36323001 30.8990476,0.668792716 24.5513521,6.36323001 L1.08925418,31.327075 C0.391449793,32.1375437 0.629698498,32.5510459 1.62657785,32.2421478 C1.62657785,32.2421478 9.73918998,29.7961427 17.3995277,26.8153062 C17.3143313,27.1806415 17.2376453,27.5276887 17.1705901,27.8535435 Z" id="Combined-Shape" fill="#AD2B1C"></path>
                        <path d="M68.3726627,27.8535435 C67.0208782,34.4225483 65.8805521,49.1673148 65.8805521,49.1673148 C65.7887024,50.2727914 66.4047936,50.6509908 67.2534495,50.0144775 C67.2534495,50.0144775 80.3125321,40.425043 85.28881,34.0213371 C85.0095401,37.0304853 84.8442827,39.1673148 84.8442827,39.1673148 C84.752433,40.2727914 85.3685241,40.6509908 86.21718,40.0144775 C86.21718,40.0144775 88.7682165,38.1412221 92.0449243,35.4977035 C88.53657,43.6299368 84.0428202,55.3268063 84.0428202,55.3268063 C83.6499326,56.3401026 84.0079115,56.6427289 84.8444964,55.9928755 C84.8444964,55.9928755 100.540313,43.9861603 106.053507,36.9915294 C106.313442,36.661748 106.579218,36.3132337 106.849706,35.948486 C105.240976,44.1159984 103.671624,53.4485817 103.671624,53.4485817 C103.487082,54.5258846 103.896898,54.7434027 104.58709,53.9243098 C104.58709,53.9243098 117.572922,38.7383016 121.586725,30.6876255 C125.600528,22.6369493 130.523121,5.767066 130.523121,5.767066 L114.257057,1.46845422 C103.043948,-1.49481983 85.411709,0.0229499421 75.7534247,6.36323001 C75.7534247,6.36323001 82.1011202,0.668792716 75.7534247,6.36323001 L52.2913267,31.327075 C51.5935223,32.1375437 51.831771,32.5510459 52.8286504,32.2421478 C52.8286504,32.2421478 60.9412625,29.7961427 68.6016002,26.8153062 C68.5164038,27.1806415 68.4397178,27.5276887 68.3726627,27.8535435 Z" id="Combined-Shape-Copy" fill="#A82B1D" transform="translate(91.207294, 28.173287) scale(-1, 1) translate(-91.207294, -28.173287) "></path>
                    </g>
                    <g id="Ears" transform="translate(23.704663, 0.000000)" fill="#000000">
                        <path d="M13.7033961,0 L21.7367651,66.8689109 L0.948186528,73.4602781 C0.948186528,73.4602781 0.719741676,74.4442243 0.948186528,70.3741359 C1.03246378,68.8726099 0.281811862,66.9326857 0.611662031,62.8513267 C0.9415122,58.7699676 2.97600786,45.399824 3.59028214,40.2417381 C5.04874138,27.9949972 13.7033961,0 13.7033961,0 Z" id="Triangle-2"></path>
                        <path d="M128.916961,0 L136.95033,66.8689109 L118.393736,73.4343201 L118.689336,49.509784 C118.752579,44.3911836 119.815165,36.2175386 121.067131,31.2357615 L128.916961,0 Z" id="Triangle-2-Copy" transform="translate(127.672033, 36.717160) scale(-1, 1) translate(-127.672033, -36.717160) "></path>
                    </g>
                </g>
                <g id="Mouth" transform="translate(73.958549, 186.000000)">
                    <path d="M0.472723567,12.2274627 C-0.0819538832,12.2214445 -0.122398668,12.0168732 0.358339128,11.7822755 L4.80167812,9.61394744 C6.2906152,8.88735331 8.8073278,7.96795153 10.405807,7.58156584 C10.405807,7.58156584 16.3521187,5.99156097 19.3870011,6.00067101 C22.4218835,6.00978105 28.3223767,7.58387167 28.3223767,7.58387167 C30.094534,8.01830106 32.8301807,9.08654582 34.4431699,9.97568159 L38.4170181,12.166205 C38.9003817,12.4326519 38.8449851,12.6437972 38.287893,12.6377529 L0.472723567,12.2274627 Z" id="Path-9" fill="#CC8888" transform="translate(19.385386, 9.319256) scale(-1, -1) translate(-19.385386, -9.319256) "></path>
                    <path d="M0.472723567,6.22682993 C-0.0819538832,6.22081175 -0.122398668,6.01624047 0.358339128,5.78164273 L4.80167812,3.61331468 C6.2906152,2.88672054 8.83204037,2.11786126 10.473933,1.90131501 C10.473933,1.90131501 20.6762061,0.490318926 23.7110885,0.49942897 C26.7459709,0.508539014 28.6291137,1.39979445 28.6291137,1.39979445 C30.2318648,1.93553741 32.7268106,3.02893186 34.2238172,3.85413402 L38.4170181,6.16557224 C38.9003817,6.43201912 38.8449851,6.64316448 38.287893,6.6371201 L0.472723567,6.22682993 Z" id="Path-9-Copy" fill="#DD9090" transform="translate(19.385386, 3.568316) scale(-1, 1) translate(-19.385386, -3.568316) "></path>
                    <path d="M14.3086377,18.8222425 C16.4833621,18.5950442 18.1986499,18.8356426 20.3733743,18.6084443 C22.5480987,18.381246 24.5696775,17.7502489 26.4381108,17.5550496" id="Path-4" stroke="#000000" opacity="0.224241395" transform="translate(20.373374, 18.188646) rotate(5.000000) translate(-20.373374, -18.188646) "></path>
                </g>
                <g id="Eyes" transform="translate(46.461140, 102.000000)" fill="#FFFFFF">
                    <path d="M15.1503962,17.3136868 L28.3807451,19.2546046 L28.3807451,17.8396573 C28.3807451,17.8396573 21.1018636,12.7673331 17.3641444,10.5331735 C13.6264252,8.29901385 5.10607479,3.92760938 5.10607479,3.92760938 L2.59369918,5.86179426 L15.1503962,17.3136868 Z" id="Path-2" transform="translate(15.487222, 11.591107) rotate(-19.000000) translate(-15.487222, -11.591107) "></path>
                    <path d="M76.1406276,17.6665336 L89.3872128,19.2654849 L89.3872128,17.8602751 C89.3872128,17.8602751 82.158424,12.8228583 78.4464275,10.604074 C74.734431,8.38528971 66.272717,4.04396892 66.272717,4.04396892 L63.7776314,5.96484289 L76.1406276,17.6665336 Z" id="Path-2-Copy" transform="translate(76.582422, 11.654727) scale(-1, 1) rotate(-19.000000) translate(-76.582422, -11.654727) "></path>
                </g>
            </g>
        </g>
    </g>
</svg>