<?xml version="1.0" encoding="UTF-8"?>
<svg width="180px" height="222px" viewBox="0 0 180 222" version="1.1" xmlns="http://www.w3.org/2000/svg" xmlns:xlink="http://www.w3.org/1999/xlink">
    <!-- Generator: Sketch 42 (36781) - http://www.bohemiancoding.com/sketch -->
    <title>Group 3</title>
    <desc>Created with Sketch.</desc>
    <defs>
        <path d="M130.890347,183.03475 L93.8057317,225.408385 L84.5009456,227.977512 L74.4979317,225.408385 L38.6571551,183.03475 L18,126.896382 L9.03982817,78.2490746 L9.0018942,58.277597 C9.00084806,57.7268259 9.27170091,56.9359078 9.62455417,56.4886025 L25.4442563,36.4342717 L34.274681,29.0912005 C41.9190558,22.7344069 55.8986874,15.4671824 65.4824529,12.8639121 L69.4458898,11.7873104 C71.0466489,11.3524909 73.6223157,10.5618173 75.1791666,10.0280241 L72.3443205,11 C79.0582391,8.69801706 95.9317457,10.7517482 96.6556795,11 L93.8212744,10.0280241 C95.3866731,10.5648315 97.9582968,11.3538343 99.5541102,11.7873104 L106.405517,13.6483811 C114.401737,15.8204211 126.042712,21.8710495 132.419104,27.1734327 L143.555744,36.4342717 L160,57.2803378 L159.960172,78.2490746 L150.985321,126.897415 L130.890347,183.03475 Z" id="path-1"></path>
    </defs>
    <g id="Page-1" stroke="none" stroke-width="1" fill="none" fill-rule="evenodd">
        <g id="Desktop-HD" transform="translate(-384.000000, -1185.000000)">
            <g id="Group-3" transform="translate(385.000000, 1179.000000)">
                <g id="Ears" transform="translate(0.000000, 99.000000)">
                    <polygon id="Path-7" stroke="#000000" stroke-width="2" fill="#DFDFDF" points="23.6010708 35.1532933 17.8051276 13.7370483 15.3908423 6.45826134 10.0868771 2.84719803 5.83872991 3.60589445 1.23403686 8.15392712 0.265282404 15.5985494 0.0883914341 23.7148046 0.737912963 30.3689454 3.70636455 38.2613229 7.71543254 42.0271659 12.8480346 45.6230276 17.2537253 48 21.9247525 47.9143184"></polygon>
                    <polygon id="Path-7-Copy-2" fill="#EFEFEF" points="23.6010708 37.2904929 18.7693504 19.4370901 16.7567096 13.3692143 12.3351209 10.3588935 8.79370257 10.9913719 4.95505394 14.7827863 4.14746309 20.9889088 4 27.7549302 4.54146604 33.302077 7.01608107 39.8814655 10.3581938 43.0208165 14.6369276 46.0184647 18.3096803 48 22.2036276 47.9285726"></polygon>
                    <polygon id="Path-7-Copy" stroke="#000000" stroke-width="2" fill="#E0E0E0" transform="translate(156.844731, 26.423599) scale(-1, -1) rotate(27.000000) translate(-156.844731, -26.423599) " points="168.601071 36.1532933 162.805128 14.7370483 160.390842 7.45826134 155.086877 3.84719803 150.83873 4.60589445 146.234037 9.15392712 145.265282 16.5985494 145.088391 24.7148046 145.737913 31.3689454 148.706365 39.2613229 152.715433 43.0271659 157.848035 46.6230276 162.253725 49 166.924752 48.9143184"></polygon>
                    <polygon id="Path-7-Copy-3" fill="#EFEFEF" transform="translate(156.783734, 28.428474) scale(-1, -1) rotate(27.000000) translate(-156.783734, -28.428474) " points="167.075515 36.9460814 162.001608 18.1977887 159.888085 11.8257646 155.244867 8.66455352 151.525937 9.3287345 147.494879 13.310191 146.646808 19.8273913 146.491953 26.932555 147.06056 32.7577489 149.659214 39.6669248 153.168847 42.9636337 157.66205 46.111537 161.518897 48.1923954 165.608026 48.1173877"></polygon>
                </g>
                <mask id="mask-2" fill="white">
                    <use xlink:href="#path-1"></use>
                </mask>
                <use id="Head-Shape" fill="#EFEFEF" xlink:href="#path-1"></use>
                <polygon id="Path-12-Copy" fill="#203A2D" mask="url(#mask-2)" transform="translate(111.302099, 118.058236) scale(-1, 1) rotate(28.000000) translate(-111.302099, -118.058236) " points="92.0352575 124.889027 103.824707 118.029675 128.538145 118.417848 131.788773 114.625796 109.969897 111.227444 90.8154258 122.413814"></polygon>
                <rect id="Rectangle-2-Copy-4" fill="#DCDCDC" opacity="0.445086051" mask="url(#mask-2)" transform="translate(53.004980, 195.004980) scale(-1, 1) rotate(45.000000) translate(-53.004980, -195.004980) " x="47.9873222" y="153.278637" width="10.0353166" height="83.4526871"></rect>
                <rect id="Rectangle-2-Copy-3" fill="#DCDCDC" opacity="0.445086051" mask="url(#mask-2)" transform="translate(118.221536, 191.836445) rotate(45.000000) translate(-118.221536, -191.836445) " x="113.203878" y="147.043328" width="10.0353166" height="89.5862326"></rect>
                <rect id="Rectangle-2-Copy-2" fill="#DCDCDC" opacity="0.445086051" mask="url(#mask-2)" transform="translate(82.241171, 222.017658) scale(-1, 1) rotate(90.000000) translate(-82.241171, -222.017658) " x="77.2235126" y="205.776487" width="10.0353166" height="32.4823417"></rect>
                <g id="Hair" mask="url(#mask-2)">
                    <g transform="translate(-17.000000, -9.000000)">
                        <polygon id="Rectangle-3" fill="#1F3A2C" points="0 14 196 15.0153846 196 80 0 80"></polygon>
                        <polygon id="Triangle-3" fill="#1F3A2C" transform="translate(106.000000, 71.545814) scale(-1, 1) translate(-106.000000, -71.545814) " points="106 63 204 80.0916278 8 80.0916278"></polygon>
                        <path d="M30.705137,74.0529876 C30.8626711,72.9585489 31.1683324,72.9440825 31.3898599,74.0365707 C31.3898599,74.0365707 35.9277046,96.1575413 37.4634997,106.82719 C38.9992949,117.496838 39.4903777,131.123485 39.4903777,131.123485 L22.4903777,131.123485 L30.705137,74.0529876 Z" id="Triangle-4-Copy-2" fill="#1F3A2C" transform="translate(30.990378, 102.174063) scale(-1, 1) rotate(174.000000) translate(-30.990378, -102.174063) "></path>
                        <path d="M179.194234,73.5582509 C179.351768,72.4638122 179.657429,72.4493458 179.878957,73.541834 C179.878957,73.541834 184.416802,95.6628046 185.952597,106.332453 C187.488392,117.002101 187.979475,130.628748 187.979475,130.628748 L170.979475,130.628748 L179.194234,73.5582509 Z" id="Triangle-4-Copy-3" fill="#1F3A2C" transform="translate(179.479475, 101.679326) rotate(174.000000) translate(-179.479475, -101.679326) "></path>
                        <g id="Bangs" stroke-width="1" fill="none" transform="translate(11.000000, 0.000000)">
                            <path d="M110.086506,-8.30348509 C110.461072,-9.34490166 110.791828,-9.29585686 110.825397,-8.18981288 L112.84868,58.474857 L98.8364055,58.116434 C98.8364055,58.116434 98.5608176,36.6169489 100.098974,25.696038 C101.637131,14.7751272 110.086506,-8.30348509 110.086506,-8.30348509 Z" id="Triangle-2-Copy" fill="#1F3A2C" transform="translate(105.832953, 24.142860) scale(-1, 1) rotate(58.000000) translate(-105.832953, -24.142860) "></path>
                            <path d="M48.2028412,57.7609465 C48.6420086,56.757007 49.1202815,56.8303188 49.2680861,57.9150376 C49.2680861,57.9150376 51.7791068,75.9110581 52.2639643,84.0790734 C52.7488219,92.2470886 52.3241944,111.976536 52.3241944,111.976536 L37.0697125,112.013842 C37.0697125,112.013842 36.7941246,94.3653408 38.3322811,85.4005817 C39.8704375,76.4358225 48.2028412,57.7609465 48.2028412,57.7609465 Z" id="Triangle-2-Copy-3" fill="#1F3A2C" transform="translate(44.773398, 84.533134) scale(-1, 1) rotate(209.000000) translate(-44.773398, -84.533134) "></path>
                            <path d="M27.4278467,48.7726749 C27.8670142,47.7687355 28.345287,47.8420473 28.4930917,48.926766 C28.4930917,48.926766 31.0041123,66.9227866 31.4889699,75.0908018 C31.9738275,83.2588171 31.5492,102.988264 31.5492,102.988264 L16.2947181,103.02557 C16.2947181,103.02557 16.0191302,85.3770693 17.5572866,76.4123101 C19.0954431,67.4475509 27.4278467,48.7726749 27.4278467,48.7726749 Z" id="Triangle-2-Copy-4" fill="#1F3A2C" transform="translate(23.998403, 75.544862) scale(-1, 1) rotate(218.000000) translate(-23.998403, -75.544862) "></path>
                            <path d="M51.2755866,45.3667805 C52.0604009,44.5870104 52.964833,44.8026727 53.2988303,45.8701703 C53.2988303,45.8701703 59.079573,63.9227866 60.1923855,72.0908018 C61.3051981,80.2588171 60.3306216,99.9882644 60.3306216,99.9882644 L25.3195574,100.02557 C25.3195574,100.02557 24.6870465,82.3770693 28.2173201,73.4123101 C31.7475937,64.4475509 51.2755866,45.3667805 51.2755866,45.3667805 Z" id="Triangle-2-Copy-8" fill="#1F3A2C" transform="translate(43.000539, 72.544862) scale(-1, 1) rotate(198.000000) translate(-43.000539, -72.544862) "></path>
                            <path d="M97.4278467,55.7726749 C97.8670142,54.7687355 98.345287,54.8420473 98.4930917,55.926766 C98.4930917,55.926766 101.004112,73.9227866 101.48897,82.0908018 C101.973827,90.2588171 101.5492,109.988264 101.5492,109.988264 L86.2947181,110.02557 C86.2947181,110.02557 86.0191302,92.3770693 87.5572866,83.4123101 C89.0954431,74.4475509 97.4278467,55.7726749 97.4278467,55.7726749 Z" id="Triangle-2-Copy-10" fill="#1F3A2C" transform="translate(93.998403, 82.544862) scale(-1, 1) rotate(208.000000) translate(-93.998403, -82.544862) "></path>
                            <path d="M74.4278467,51.7726749 C74.8670142,50.7687355 75.345287,50.8420473 75.4930917,51.926766 C75.4930917,51.926766 78.0041123,69.9227866 78.4889699,78.0908018 C78.9738275,86.2588171 78.5492,105.988264 78.5492,105.988264 L63.2947181,106.02557 C63.2947181,106.02557 63.0191302,88.3770693 64.5572866,79.4123101 C66.0954431,70.4475509 74.4278467,51.7726749 74.4278467,51.7726749 Z" id="Triangle-2-Copy-7" fill="#1F3A2C" transform="translate(70.998403, 78.544862) scale(-1, 1) rotate(164.000000) translate(-70.998403, -78.544862) "></path>
                            <path d="M75.4278467,41.7726749 C75.8670142,40.7687355 76.345287,40.8420473 76.4930917,41.926766 C76.4930917,41.926766 79.0041123,59.9227866 79.4889699,68.0908018 C79.9738275,76.2588171 79.5492,95.9882644 79.5492,95.9882644 L64.2947181,96.0255704 C64.2947181,96.0255704 64.0191302,78.3770693 65.5572866,69.4123101 C67.0954431,60.4475509 75.4278467,41.7726749 75.4278467,41.7726749 Z" id="Triangle-2-Copy-14" fill="#1F3A2C" transform="translate(71.998403, 68.544862) rotate(151.000000) translate(-71.998403, -68.544862) "></path>
                            <path d="M66.4278467,48.7726749 C66.8670142,47.7687355 67.345287,47.8420473 67.4930917,48.926766 C67.4930917,48.926766 70.0041123,66.9227866 70.4889699,75.0908018 C70.9738275,83.2588171 70.5492,102.988264 70.5492,102.988264 L55.2947181,103.02557 C55.2947181,103.02557 55.0191302,85.3770693 56.5572866,76.4123101 C58.0954431,67.4475509 66.4278467,48.7726749 66.4278467,48.7726749 Z" id="Triangle-2-Copy-9" fill="#1F3A2C" transform="translate(62.998403, 75.544862) scale(-1, 1) rotate(162.000000) translate(-62.998403, -75.544862) "></path>
                            <path d="M109.562163,45.8728805 C110.00133,44.868941 110.479603,44.9422528 110.627408,46.0269716 C110.627408,46.0269716 113.138428,64.0229921 113.623286,72.1910074 C114.108144,80.3590226 113.683516,100.08847 113.683516,100.08847 L98.4290342,100.125776 C98.4290342,100.125776 98.1534463,82.4772748 99.6916027,73.5125157 C101.229759,64.5477565 109.562163,45.8728805 109.562163,45.8728805 Z" id="Triangle-2-Copy-6" fill="#1F3A2C" transform="translate(106.132720, 72.645068) rotate(134.000000) translate(-106.132720, -72.645068) "></path>
                            <path d="M144.535254,16.572967 C145.103842,15.6433745 145.786618,15.7594201 146.055732,16.8224524 C146.055732,16.8224524 154.859463,51.0499998 156.479911,65.8415936 C158.100359,80.6331875 156.681207,116.36157 156.681207,116.36157 L124.62367,120.709704 C124.62367,120.709704 115.468895,66.3015394 116.306857,63.8044928 C117.14482,61.3074461 144.535254,16.572967 144.535254,16.572967 Z" id="Triangle-2-Copy-5" fill="#1F3A2C" transform="translate(136.754464, 68.326952) rotate(119.000000) translate(-136.754464, -68.326952) "></path>
                            <path d="M37.6268481,22.2190106 C38.0014138,21.1775941 38.3321704,21.2266389 38.3657391,22.3326828 L40.3890221,88.9973528 L26.3767476,88.6389298 C26.3767476,88.6389298 26.1011597,67.1394446 27.6393161,56.2185338 C29.1774726,45.2976229 37.6268481,22.2190106 37.6268481,22.2190106 Z" id="Triangle-2-Copy-2" fill="#1F3A2C" transform="translate(33.373295, 54.665356) scale(-1, 1) rotate(126.000000) translate(-33.373295, -54.665356) "></path>
                        </g>
                    </g>
                </g>
                <path d="M100.26633,-14.2499842 C100.705497,-15.2539237 101.18377,-15.1806119 101.331575,-14.0958931 C101.331575,-14.0958931 103.842595,3.90012742 104.327453,12.0681427 C104.81231,20.2361579 104.387683,39.9656052 104.387683,39.9656052 L89.133201,40.0029112 C89.133201,40.0029112 88.8576131,22.3544101 90.3957695,13.389651 C91.933926,4.42489177 100.26633,-14.2499842 100.26633,-14.2499842 Z" id="Triangle-2-Copy-11" fill="#203A2D" transform="translate(96.836886, 12.522203) scale(-1, -1) rotate(260.000000) translate(-96.836886, -12.522203) "></path>
                <path d="M153.26633,56.7500158 C153.705497,55.7460763 154.18377,55.8193881 154.331575,56.9041069 C154.331575,56.9041069 156.842595,74.9001274 157.327453,83.0681427 C157.81231,91.2361579 157.387683,110.965605 157.387683,110.965605 L142.133201,111.002911 C142.133201,111.002911 141.857613,93.3544101 143.39577,84.389651 C144.933926,75.4248918 153.26633,56.7500158 153.26633,56.7500158 Z" id="Triangle-2-Copy-12" fill="#203A2D" transform="translate(149.836886, 83.522203) scale(-1, 1) rotate(190.000000) translate(-149.836886, -83.522203) "></path>
                <path d="M160.26633,35.7500158 C160.705497,34.7460763 161.18377,34.8193881 161.331575,35.9041069 C161.331575,35.9041069 163.842595,53.9001274 164.327453,62.0681427 C164.81231,70.2361579 164.387683,89.9656052 164.387683,89.9656052 L149.133201,90.0029112 C149.133201,90.0029112 148.857613,72.3544101 150.39577,63.389651 C151.933926,54.4248918 160.26633,35.7500158 160.26633,35.7500158 Z" id="Triangle-2-Copy-13" fill="#203A2D" transform="translate(156.836886, 62.522203) scale(-1, 1) rotate(223.000000) translate(-156.836886, -62.522203) "></path>
                <path d="M158.26633,17.7500158 C158.705497,16.7460763 159.18377,16.8193881 159.331575,17.9041069 C159.331575,17.9041069 161.842595,35.9001274 162.327453,44.0681427 C162.81231,52.2361579 162.387683,71.9656052 162.387683,71.9656052 L147.133201,72.0029112 C147.133201,72.0029112 146.857613,54.3544101 148.39577,45.389651 C149.933926,36.4248918 158.26633,17.7500158 158.26633,17.7500158 Z" id="Triangle-2-Copy-15" fill="#203A2D" transform="translate(154.836886, 44.522203) rotate(114.000000) translate(-154.836886, -44.522203) "></path>
                <g id="Eyes" transform="translate(32.000000, 110.000000)">
                    <g id="Group" transform="translate(82.019369, 15.137819) rotate(-25.000000) translate(-82.019369, -15.137819) translate(63.019369, 9.137819)">
                        <path d="M1.66039307,8.52653404 C2.19554659,8.64721999 3.06999966,8.77559421 3.62442633,8.81402048 L10.7698487,9.30925627 C11.3194008,9.34734469 12.2085274,9.43130911 12.7539936,9.49658364 L18.2242291,10.1511926 C18.77049,10.2165622 19.6547782,10.2211723 20.2006289,10.1613484 L26.0215269,9.52339296 C26.5668015,9.46363227 27.4595542,9.3777417 28.0004812,9.33280255 L28.0480763,9.32884844 C28.595748,9.28334896 29.4789589,9.18379105 30.0283613,9.10539831 L36.6694656,8.15779722 C37.2154752,8.0798886 37.2596401,7.80651327 36.77422,7.55041938 L25.2279295,1.45892436 C24.7397742,1.20138746 23.8883295,0.996327497 23.3428918,1.00077383 L22.0677419,1.01116869 C21.5148197,1.01567604 20.6186503,1.03424561 20.0660188,1.05264742 L16.8133413,1.16095671 C16.2607423,1.17935742 15.3766053,1.28997473 14.8275674,1.41044058 L13.1215876,1.78475411 C12.5774739,1.90413953 11.6974649,2.0948026 11.157778,2.21023862 L8.70551562,2.73476386 C8.16504717,2.85036705 7.34220446,3.17567583 6.87105435,3.45930892 L5.73022578,4.14608948 C5.25754925,4.43064148 4.49807935,4.89194769 4.01896652,5.1856 L1.96076238,6.44709075 C0.5463775,7.31397923 0.713386728,8.31296848 2.33133173,8.67784178 L1.66039307,8.52653404 Z" id="RighBG" stroke="#000000" fill="#FFFFFF"></path>
                        <ellipse id="Oval" fill="#63AC38" cx="18.3218208" cy="5.60169061" rx="5.3218208" ry="4.60169061"></ellipse>
                        <ellipse id="Oval-Copy" fill="#000000" cx="18.2174253" cy="4.91737109" rx="2.21742533" ry="1.91737109"></ellipse>
                        <path d="M1.66039307,8.52653404 C2.19554659,8.64721999 3.06999966,8.77559421 3.62442633,8.81402048 L10.7698487,9.30925627 C11.3194008,9.34734469 12.2085274,9.43130911 12.7539936,9.49658364 L18.2242291,10.1511926 C18.77049,10.2165622 19.6547782,10.2211723 20.2006289,10.1613484 L26.0215269,9.52339296 C26.5668015,9.46363227 27.4595542,9.3777417 28.0004812,9.33280255 L28.0480763,9.32884844 C28.595748,9.28334896 29.4789589,9.18379105 30.0283613,9.10539831 L36.6694656,8.15779722 C37.2154752,8.0798886 37.2596401,7.80651327 36.77422,7.55041938 L25.2279295,1.45892436 C24.7397742,1.20138746 23.8883295,0.996327497 23.3428918,1.00077383 L22.0677419,1.01116869 C21.5148197,1.01567604 20.6186503,1.03424561 20.0660188,1.05264742 L16.8133413,1.16095671 C16.2607423,1.17935742 15.3766053,1.28997473 14.8275674,1.41044058 L13.1215876,1.78475411 C12.5774739,1.90413953 11.6974649,2.0948026 11.157778,2.21023862 L8.70551562,2.73476386 C8.16504717,2.85036705 7.34220446,3.17567583 6.87105435,3.45930892 L5.73022578,4.14608948 C5.25754925,4.43064148 4.49807935,4.89194769 4.01896652,5.1856 L1.96076238,6.44709075 C0.5463775,7.31397923 0.713386728,8.31296848 2.33133173,8.67784178 L1.66039307,8.52653404 Z" id="Righfront" stroke="#000000" transform="translate(19.055322, 5.602042) rotate(3.000000) translate(-19.055322, -5.602042) "></path>
                    </g>
                    <g id="Left" transform="translate(21.211729, 14.083290) rotate(24.000000) translate(-21.211729, -14.083290) translate(1.211729, 8.583290)">
                        <path d="M1.32699654,6.29046528 C0.808422995,6.48593112 0.833108303,6.73534705 1.37166888,6.84541284 L12.781268,9.17719612 C13.3245134,9.28821935 14.2085274,9.43341217 14.7539936,9.50127254 L20.2242291,10.1818137 C20.77049,10.2497729 21.6547782,10.2544827 22.2006289,10.1921864 L28.0215269,9.527865 C28.5668015,9.46563447 29.4595542,9.3777417 30.0004812,9.33280255 L30.0480763,9.32884844 C30.595748,9.28334896 31.4913846,9.21165877 32.0365697,9.16964612 L34.1178325,9.00926141 C34.6683754,8.96683588 35.5517137,8.8540697 36.0995992,8.75581741 L37.472729,8.50957407 C38.0166856,8.41202634 38.891041,8.21878666 39.4266438,8.07770102 L38.6891092,8.27197845 C39.2242699,8.13100928 39.3397791,7.70433656 38.9505341,7.32234231 L35.2769198,3.7171591 C34.8861401,3.33365872 34.1509531,2.84598886 33.647542,2.63328753 L33.0891534,2.39735708 C32.5800527,2.18225173 31.7449312,1.85595589 31.2228083,1.6681776 L30.6868186,1.47541221 C30.1651654,1.28780286 29.2980219,1.11700723 28.741079,1.09355384 L27.345249,1.03477414 C26.7922999,1.01148894 25.8883295,0.996327497 25.3428918,1.00077383 L24.0677419,1.01116869 C23.5148197,1.01567604 22.6186503,1.03424561 22.0660188,1.05264742 L18.8133413,1.16095671 C18.2607423,1.17935742 17.3766053,1.28997473 16.8275674,1.41044058 L15.1215876,1.78475411 C14.5774739,1.90413953 13.6974649,2.0948026 13.157778,2.21023862 L10.7055156,2.73476386 C10.1650472,2.85036705 9.31424575,3.12318641 8.8139028,3.34034468 L7.48335842,3.91782603 C6.97911796,4.1366759 6.1454148,4.47425963 5.63138983,4.66801099 L1.32699654,6.29046528 Z" id="LeftBG" stroke="#000000" fill="#FFFFFF"></path>
                        <ellipse id="Oval" fill="#63AC39" cx="20.3218208" cy="5.60169061" rx="5.3218208" ry="4.60169061"></ellipse>
                        <ellipse id="Oval-Copy" fill="#000000" cx="20.2174253" cy="4.91737109" rx="2.21742533" ry="1.91737109"></ellipse>
                        <path d="M1.32699654,6.29046528 C0.808422995,6.48593112 0.833108303,6.73534705 1.37166888,6.84541284 L12.781268,9.17719612 C13.3245134,9.28821935 14.2085274,9.43341217 14.7539936,9.50127254 L20.2242291,10.1818137 C20.77049,10.2497729 21.6547782,10.2544827 22.2006289,10.1921864 L28.0215269,9.527865 C28.5668015,9.46563447 29.4595542,9.3777417 30.0004812,9.33280255 L30.0480763,9.32884844 C30.595748,9.28334896 31.4913846,9.21165877 32.0365697,9.16964612 L34.1178325,9.00926141 C34.6683754,8.96683588 35.5517137,8.8540697 36.0995992,8.75581741 L37.472729,8.50957407 C38.0166856,8.41202634 38.891041,8.21878666 39.4266438,8.07770102 L38.6891092,8.27197845 C39.2242699,8.13100928 39.3397791,7.70433656 38.9505341,7.32234231 L35.2769198,3.7171591 C34.8861401,3.33365872 34.1509531,2.84598886 33.647542,2.63328753 L33.0891534,2.39735708 C32.5800527,2.18225173 31.7449312,1.85595589 31.2228083,1.6681776 L30.6868186,1.47541221 C30.1651654,1.28780286 29.2980219,1.11700723 28.741079,1.09355384 L27.345249,1.03477414 C26.7922999,1.01148894 25.8883295,0.996327497 25.3428918,1.00077383 L24.0677419,1.01116869 C23.5148197,1.01567604 22.6186503,1.03424561 22.0660188,1.05264742 L18.8133413,1.16095671 C18.2607423,1.17935742 17.3766053,1.28997473 16.8275674,1.41044058 L15.1215876,1.78475411 C14.5774739,1.90413953 13.6974649,2.0948026 13.157778,2.21023862 L10.7055156,2.73476386 C10.1650472,2.85036705 9.31424575,3.12318641 8.8139028,3.34034468 L7.48335842,3.91782603 C6.97911796,4.1366759 6.1454148,4.47425963 5.63138983,4.66801099 L1.32699654,6.29046528 Z" id="LeftBG-Copy" stroke="#000000" transform="translate(20.189562, 5.618005) rotate(-2.000000) translate(-20.189562, -5.618005) "></path>
                    </g>
                </g>
                <polygon id="Path-12" fill="#203A2D" transform="translate(58.486673, 117.066294) rotate(26.000000) translate(-58.486673, -117.066294) " points="39.2198317 123.897086 51.0092813 117.037734 75.7227188 117.425907 78.9733468 113.633854 57.154471 110.235502 38 121.421872"></polygon>
                <path d="M85,132.936725 C83.9923763,156.711606 99.5376135,180.570638 78.6592588,171.324234" id="Path-8" stroke="#5F513C" stroke-width="2" opacity="0.323086504"></path>
                <path d="M106.380186,194.964393 L126.211489,173.465337 C126.963428,172.650163 126.782554,172.403867 125.808887,172.91371 C125.808887,172.91371 94.5793233,189.494692 85.3805379,189.850436 L85.3805379,189.850436 C76.1817525,189.494692 44.9521887,172.91371 44.9521887,172.91371 C43.9785222,172.403867 43.7976476,172.650163 44.5495864,173.465337 L64.5214889,195.116815 C66.1162273,197.759187 75.1498247,199.783998 85.4164289,199.783998 C95.879573,199.783998 105.049418,197.680921 106.380186,194.964393 Z" id="Combined-Shape-Copy" fill="#913434"></path>
                <g id="Group-2" transform="translate(37.000000, 163.000000)" fill="#D8D8D8">
                    <rect id="Rectangle-9-Copy" transform="translate(4.263804, 12.596251) scale(-1, 1) rotate(52.000000) translate(-4.263804, -12.596251) " x="0.273803493" y="11.5962508" width="7.98000002" height="2"></rect>
                    <rect id="Rectangle-9-Copy-2" transform="translate(3.763803, 5.596251) scale(-1, -1) rotate(60.000000) translate(-3.763803, -5.596251) " x="-1.72619651" y="4.59625084" width="10.9799995" height="2"></rect>
                </g>
                <g id="Group-2-Copy" transform="translate(130.000000, 171.500000) scale(-1, 1) translate(-130.000000, -171.500000) translate(126.000000, 163.000000)" fill="#D8D8D8">
                    <rect id="Rectangle-9-Copy" transform="translate(4.263804, 12.596251) scale(-1, 1) rotate(52.000000) translate(-4.263804, -12.596251) " x="0.273803493" y="11.5962508" width="7.98000002" height="2"></rect>
                    <rect id="Rectangle-9-Copy-2" transform="translate(3.763803, 5.596251) scale(-1, -1) rotate(60.000000) translate(-3.763803, -5.596251) " x="-1.72619651" y="4.59625084" width="10.9799995" height="2"></rect>
                </g>
                <g id="WRINKLES" transform="translate(96.093783, 134.356269) rotate(33.000000) translate(-96.093783, -134.356269) translate(54.593783, 92.356269)" stroke="#E5E5E5" stroke-width="2">
                    <path d="M0.153334263,79.916746 C6.57429534,76.8716183 9.18542117,76.7657422 11.012033,76.8835713 C12.8386448,77.0014005 14.4526728,78.6099182 21.2249168,79.2561813 C25.8357315,79.6961831 34.6425071,76.0505862 39.6151107,82.2111879" id="Path-10" transform="translate(19.884222, 79.532936) rotate(-4.000000) translate(-19.884222, -79.532936) "></path>
                    <path d="M67.6479124,12.5796745 C81.5044206,7.14137254 83.0986282,10.619307 90.2442451,13.5923415" id="Path-11" transform="translate(78.946079, 11.658919) scale(-1, 1) rotate(100.000000) translate(-78.946079, -11.658919) "></path>
                </g>
            </g>
        </g>
    </g>
</svg>