<?xml version="1.0" encoding="UTF-8"?>
<svg width="164px" height="208px" viewBox="0 0 164 208" version="1.1" xmlns="http://www.w3.org/2000/svg" xmlns:xlink="http://www.w3.org/1999/xlink">
    <!-- Generator: Sketch 42 (36781) - http://www.bohemiancoding.com/sketch -->
    <title>Group</title>
    <desc>Created with Sketch.</desc>
    <defs>
        <path d="M132.914407,173.591895 L90.3162858,206.58668 L81.5009456,207.360503 L72.4607397,206.58668 L30.0855929,174.03475 L15,117.896382 L6.03982817,69.2490746 L6.0018942,49.277597 C6.00084806,48.7268259 6.27170091,47.9359078 6.62455417,47.4886025 L22.4442563,27.4342717 L31.274681,20.0912005 C38.9190558,13.7344069 52.8986874,6.46718242 62.4824529,3.86391209 L66.4458898,2.78731043 C68.0466489,2.35249089 70.6223157,1.56181727 72.1791666,1.02802405 L69.3443205,2 C76.0582391,-0.301982937 92.9317457,1.75174818 93.6556795,2 L90.8212744,1.02802405 C92.3866731,1.56483155 94.9582968,2.35383429 96.5541102,2.78731043 L103.405517,4.64838108 C111.401737,6.82042109 123.042712,12.8710495 129.419104,18.1734327 L140.555744,27.4342717 L157,48.2803378 L156.960172,69.2490746 L147.985321,117.897415 L132.914407,173.591895 Z" id="path-1"></path>
    </defs>
    <g id="Page-1" stroke="none" stroke-width="1" fill="none" fill-rule="evenodd">
        <g id="Desktop-HD" transform="translate(-635.000000, -765.000000)">
            <g id="Group" transform="translate(635.000000, 765.000000)">
                <g id="Hair-BG" transform="translate(0.000000, 84.000000)" fill="#161817">
                    <path d="M142.26633,14.7500158 C142.705497,13.7460763 143.18377,13.8193881 143.331575,14.9041069 C143.331575,14.9041069 145.842595,32.9001274 146.327453,41.0681427 C146.81231,49.2361579 146.387683,68.9656052 146.387683,68.9656052 L131.133201,69.0029112 C131.133201,69.0029112 130.857613,51.3544101 132.39577,42.389651 C133.933926,33.4248918 142.26633,14.7500158 142.26633,14.7500158 Z" id="Triangle-2-Copy-6" transform="translate(138.836886, 41.522203) rotate(164.000000) translate(-138.836886, -41.522203) "></path>
                    <path d="M23.2663296,15.7500158 C23.7054971,14.7460763 24.1837699,14.8193881 24.3315746,15.9041069 C24.3315746,15.9041069 26.8425952,33.9001274 27.3274528,42.0681427 C27.8123104,50.2361579 27.3876829,69.9656052 27.3876829,69.9656052 L12.133201,70.0029112 C12.133201,70.0029112 11.8576131,52.3544101 13.3957695,43.389651 C14.933926,34.4248918 23.2663296,15.7500158 23.2663296,15.7500158 Z" id="Triangle-2-Copy-11" transform="translate(19.836886, 42.522203) scale(-1, 1) rotate(170.000000) translate(-19.836886, -42.522203) "></path>
                    <path d="M18.2663296,2.75001577 C18.7054971,1.74607633 19.1837699,1.81938813 19.3315746,2.90410688 C19.3315746,2.90410688 21.8425952,20.9001274 22.3274528,29.0681427 C22.8123104,37.2361579 22.3876829,56.9656052 22.3876829,56.9656052 L7.13320096,57.0029112 C7.13320096,57.0029112 6.85761306,39.3544101 8.39576952,30.389651 C9.93392597,21.4248918 18.2663296,2.75001577 18.2663296,2.75001577 Z" id="Triangle-2-Copy-12" transform="translate(14.836886, 29.522203) scale(-1, 1) rotate(166.000000) translate(-14.836886, -29.522203) "></path>
                    <path d="M145.26633,16.7500158 C145.705497,15.7460763 146.18377,15.8193881 146.331575,16.9041069 C146.331575,16.9041069 148.842595,34.9001274 149.327453,43.0681427 C149.81231,51.2361579 149.387683,70.9656052 149.387683,70.9656052 L134.133201,71.0029112 C134.133201,71.0029112 133.857613,53.3544101 135.39577,44.389651 C136.933926,35.4248918 145.26633,16.7500158 145.26633,16.7500158 Z" id="Triangle-2-Copy-13" transform="translate(141.836886, 43.522203) rotate(159.000000) translate(-141.836886, -43.522203) "></path>
                </g>
                <g id="Ears" transform="translate(1.000000, 84.000000)">
                    <polygon id="Path-7" stroke="#000000" stroke-width="2" fill="#F3D6AD" points="23.6010708 34.1532933 17.8051276 12.7370483 15.3908423 5.45826134 10.0868771 1.84719803 5.83872991 2.60589445 1.23403686 7.15392712 0.265282404 14.5985494 0.0883914341 22.7148046 0.737912963 29.3689454 3.70636455 37.2613229 7.71543254 41.0271659 12.8480346 44.6230276 17.2537253 47 21.9247525 46.9143184"></polygon>
                    <polygon id="Path-7-Copy-2" fill="#E3BE88" points="23.6010708 36.2904929 18.7693504 18.4370901 16.7567096 12.3692143 12.3351209 9.35889349 8.79370257 9.99137191 4.95505394 13.7827863 4.14746309 19.9889088 4 26.7549302 4.54146604 32.302077 7.01608107 38.8814655 10.3581938 42.0208165 14.6369276 45.0184647 18.3096803 47 22.2036276 46.9285726"></polygon>
                    <polygon id="Path-7-Copy" stroke="#000000" stroke-width="2" fill="#F3D6AD" transform="translate(148.844731, 26.423599) scale(-1, -1) rotate(27.000000) translate(-148.844731, -26.423599) " points="160.601071 36.1532933 154.805128 14.7370483 152.390842 7.45826134 147.086877 3.84719803 142.83873 4.60589445 138.234037 9.15392712 137.265282 16.5985494 137.088391 24.7148046 137.737913 31.3689454 140.706365 39.2613229 144.715433 43.0271659 149.848035 46.6230276 154.253725 49 158.924752 48.9143184"></polygon>
                    <polygon id="Path-7-Copy-3" fill="#E3BD87" transform="translate(148.783734, 28.428474) scale(-1, -1) rotate(27.000000) translate(-148.783734, -28.428474) " points="159.075515 36.9460814 154.001608 18.1977887 151.888085 11.8257646 147.244867 8.66455352 143.525937 9.3287345 139.494879 13.310191 138.646808 19.8273913 138.491953 26.932555 139.06056 32.7577489 141.659214 39.6669248 145.168847 42.9636337 149.66205 46.111537 153.518897 48.1923954 157.608026 48.1173877"></polygon>
                </g>
                <mask id="mask-2" fill="white">
                    <use xlink:href="#path-1"></use>
                </mask>
                <use id="Head-Shape" fill="#F4D6AD" xlink:href="#path-1"></use>
                <rect id="Rectangle-2-Copy" fill="#DCCAB0" opacity="0.445086051" mask="url(#mask-2)" transform="translate(50.004980, 188.004980) scale(-1, 1) rotate(45.000000) translate(-50.004980, -188.004980) " x="44.9873222" y="146.278637" width="10.0353166" height="83.4526871"></rect>
                <rect id="Rectangle-2-Copy-4" fill="#7D7B77" opacity="0.172724185" mask="url(#mask-2)" transform="translate(60.312602, 116.426721) scale(-1, -1) rotate(66.000000) translate(-60.312602, -116.426721) " x="56.7686593" y="87.6816859" width="7.08788577" height="57.4900699"></rect>
                <rect id="Rectangle-2-Copy-5" fill="#7D7B77" opacity="0.172724185" mask="url(#mask-2)" transform="translate(106.312602, 116.426721) scale(-1, 1) rotate(66.000000) translate(-106.312602, -116.426721) " x="102.768659" y="87.6816859" width="7.08788577" height="57.4900699"></rect>
                <rect id="Rectangle-2-Copy-3" fill="#DCCAB0" opacity="0.445086051" mask="url(#mask-2)" transform="translate(115.221536, 185.836445) rotate(45.000000) translate(-115.221536, -185.836445) " x="110.203878" y="141.043328" width="10.0353166" height="89.5862326"></rect>
                <rect id="Rectangle-2-Copy-2" fill="#DCCAB0" opacity="0.445086051" mask="url(#mask-2)" transform="translate(79.241171, 205.017658) scale(-1, 1) rotate(90.000000) translate(-79.241171, -205.017658) " x="74.2235126" y="188.776487" width="10.0353166" height="32.4823417"></rect>
                <g id="Mouth" mask="url(#mask-2)" stroke-width="2">
                    <g transform="translate(62.000000, 175.000000)">
                        <path d="M0.476397347,6.28213426 C-0.0741104002,6.27305799 -0.156525618,5.99588383 0.276264022,5.67495299 L5.54367856,1.76895418 C6.87133738,0.78444201 9.29247669,-0.00752836403 10.954766,5.399393e-05 L29.8099602,0.0860599809 C31.7343844,0.0948380396 34.4846334,1.09890501 35.9632455,2.33744475 L40.7095734,6.31314314 C41.1348556,6.66937511 41.0363531,6.95085008 40.4828324,6.94172414 L0.476397347,6.28213426 Z" id="Path-9" stroke="#555555" fill="#F4F4F4" fill-rule="evenodd"></path>
                        <path d="M14.0308823,12.8222425 L26.8231682,11.5550496" id="Path-4" stroke="#000000" fill="none" opacity="0.770833333" transform="translate(20.427025, 12.188646) rotate(5.000000) translate(-20.427025, -12.188646) "></path>
                    </g>
                </g>
                <g id="Hair" mask="url(#mask-2)">
                    <g transform="translate(-24.000000, -14.000000)">
                        <path d="M107.427004,141 C106.41938,164.774881 120.777411,176.684945 96,166.607066" id="Path-8" stroke="#5F513C" stroke-width="2" fill="none" opacity="0.479393116"></path>
                        <polygon id="Rectangle-3" stroke="none" fill="#161817" fill-rule="evenodd" points="0 9 196 10.0153846 196 75 0 75"></polygon>
                        <polygon id="Triangle-3" stroke="none" fill="#F1CF9E" fill-rule="evenodd" transform="translate(106.000000, 66.545814) scale(-1, 1) translate(-106.000000, -66.545814) " points="106 58 204 75.0916278 8 75.0916278"></polygon>
                        <path d="M30.705137,69.0529876 C30.8626711,67.9585489 31.1683324,67.9440825 31.3898599,69.0365707 C31.3898599,69.0365707 35.9277046,91.1575413 37.4634997,101.82719 C38.9992949,112.496838 39.4903777,126.123485 39.4903777,126.123485 L22.4903777,126.123485 L30.705137,69.0529876 Z" id="Triangle-4-Copy-2" stroke="none" fill="#161817" fill-rule="evenodd" transform="translate(30.990378, 97.174063) scale(-1, 1) rotate(174.000000) translate(-30.990378, -97.174063) "></path>
                        <path d="M179.194234,68.5582509 C179.351768,67.4638122 179.657429,67.4493458 179.878957,68.541834 C179.878957,68.541834 184.416802,90.6628046 185.952597,101.332453 C187.488392,112.002101 187.979475,125.628748 187.979475,125.628748 L170.979475,125.628748 L179.194234,68.5582509 Z" id="Triangle-4-Copy-3" stroke="none" fill="#161817" fill-rule="evenodd" transform="translate(179.479475, 96.679326) rotate(174.000000) translate(-179.479475, -96.679326) "></path>
                        <g id="Mask" stroke="none" stroke-width="1" fill="none" fill-rule="evenodd" transform="translate(35.000000, 90.000000)">
                            <path d="M0.0851101563,28.4935579 C0.32400242,30.1360222 1.26570192,32.5852685 2.18769585,33.9629685 L10.3624444,46.1781799 L23.1415252,58.2083074 C24.7515409,59.7239637 25.6713167,59.21254 25.1936978,57.0560588 L24.007724,51.701308 L39.1543135,42.5314445 C42.4596089,40.5303929 48.1133476,37.9098748 51.7719978,36.6818089 L71.627647,30.0170436 L71.8346654,19.1906133 L34.5477285,10.0756853 L11.3111426,-3.55271368e-14 L1.01962425,24.0074621 C0.365189523,25.5340898 0.0285581043,28.1047436 0.267218063,29.7456108 L0.0851101563,28.4935579 Z" id="Combined-Shape" fill="#000000"></path>
                            <path d="M71,28.4935579 C71.2388923,30.1360222 72.1805918,32.5852685 73.1025857,33.9629685 L81.2773342,46.1781799 L94.0564151,58.2083074 C95.6664308,59.7239637 96.5862065,59.21254 96.1085876,57.0560588 L94.9226138,51.701308 L110.069203,42.5314445 C113.374499,40.5303929 119.028237,37.9098748 122.686888,36.6818089 L142.542537,30.0170436 L142.749555,19.1906133 L105.462618,10.0756853 L82.2260324,-3.55271368e-14 L71.9345141,24.0074621 C71.2800794,25.5340898 70.9434479,28.1047436 71.1821079,29.7456108 L71,28.4935579 Z" id="Combined-Shape-Copy" fill="#000000" transform="translate(106.874778, 29.539676) scale(-1, 1) translate(-106.874778, -29.539676) "></path>
                            <path d="M18.6414611,22.7524879 C15.2540191,23.7403812 15.005704,25.9200095 18.1045144,27.630584 L23.5802556,30.653248 C26.4832722,32.2557423 31.5171151,33.5955451 34.8376307,33.6459935 L30.1194075,33.5743098 C33.6436411,33.6278533 39.2156451,32.7740153 42.5680659,31.6661389 L50.94407,28.898116 C54.0855811,27.859939 54.0436532,26.3356614 50.8263385,25.4871955 L39.0842953,22.3905999 C36.4180709,21.6874669 32.0145433,21.0647601 29.2595691,21 L31.3768157,21.0497693 C27.8519304,20.9669112 22.2542328,21.6988808 18.8609401,22.6884804 L18.6414611,22.7524879 Z" id="Path-6-Copy-2" fill="#FFFFFF"></path>
                            <path d="M92.2887852,19.7629956 C88.1975938,21.2333952 87.8002681,24.4113209 91.3814714,26.8475794 L96.2440576,30.1555505 C98.986509,32.021214 103.890188,33.5838215 107.210704,33.6459935 L101.876425,33.5461166 C105.740897,33.6184734 111.779489,32.4936832 115.354275,31.0377878 L123.45099,27.7402553 C126.518579,26.4909244 126.449487,24.6474761 123.301146,23.6242538 L111.388724,19.7526732 C108.760411,18.8984619 104.387616,18.1410341 101.632642,18.0612245 L104.363947,18.1403484 C100.499927,18.0284106 94.4242067,18.9955118 90.7769087,20.3063734 L92.2887852,19.7629956 Z" id="Path-6-Copy" fill="#FFFFFF" transform="translate(107.322484, 25.853609) scale(-1, 1) translate(-107.322484, -25.853609) "></path>
                        </g>
                        <g id="Bangs" stroke="none" stroke-width="1" fill="none" fill-rule="evenodd" transform="translate(12.000000, 0.000000)">
                            <path d="M109.086506,-8.30348509 C109.461072,-9.34490166 109.791828,-9.29585686 109.825397,-8.18981288 L111.84868,58.474857 L97.8364055,58.116434 C97.8364055,58.116434 97.5608176,36.6169489 99.0989741,25.696038 C100.637131,14.7751272 109.086506,-8.30348509 109.086506,-8.30348509 Z" id="Triangle-2-Copy" fill="#161817" transform="translate(104.832953, 24.142860) scale(-1, 1) rotate(58.000000) translate(-104.832953, -24.142860) "></path>
                            <path d="M36.2028412,57.7609465 C36.6420086,56.757007 37.1202815,56.8303188 37.2680861,57.9150376 C37.2680861,57.9150376 39.7791068,75.9110581 40.2639643,84.0790734 C40.7488219,92.2470886 40.3241944,111.976536 40.3241944,111.976536 L25.0697125,112.013842 C25.0697125,112.013842 24.7941246,94.3653408 26.3322811,85.4005817 C27.8704375,76.4358225 36.2028412,57.7609465 36.2028412,57.7609465 Z" id="Triangle-2-Copy-3" fill="#161817" transform="translate(32.773398, 84.533134) scale(-1, 1) rotate(164.000000) translate(-32.773398, -84.533134) "></path>
                            <path d="M49.4278467,48.7726749 C49.8670142,47.7687355 50.345287,47.8420473 50.4930917,48.926766 C50.4930917,48.926766 53.0041123,66.9227866 53.4889699,75.0908018 C53.9738275,83.2588171 53.5492,102.988264 53.5492,102.988264 L38.2947181,103.02557 C38.2947181,103.02557 38.0191302,85.3770693 39.5572866,76.4123101 C41.0954431,67.4475509 49.4278467,48.7726749 49.4278467,48.7726749 Z" id="Triangle-2-Copy-4" fill="#161817" transform="translate(45.998403, 75.544862) scale(-1, 1) rotate(164.000000) translate(-45.998403, -75.544862) "></path>
                            <path d="M58.4278467,45.7726749 C58.8670142,44.7687355 59.345287,44.8420473 59.4930917,45.926766 C59.4930917,45.926766 62.0041123,63.9227866 62.4889699,72.0908018 C62.9738275,80.2588171 62.5492,99.9882644 62.5492,99.9882644 L47.2947181,100.02557 C47.2947181,100.02557 47.0191302,82.3770693 48.5572866,73.4123101 C50.0954431,64.4475509 58.4278467,45.7726749 58.4278467,45.7726749 Z" id="Triangle-2-Copy-8" fill="#161817" transform="translate(54.998403, 72.544862) rotate(198.000000) translate(-54.998403, -72.544862) "></path>
                            <path d="M76.4278467,55.7726749 C76.8670142,54.7687355 77.345287,54.8420473 77.4930917,55.926766 C77.4930917,55.926766 80.0041123,73.9227866 80.4889699,82.0908018 C80.9738275,90.2588171 80.5492,109.988264 80.5492,109.988264 L65.2947181,110.02557 C65.2947181,110.02557 65.0191302,92.3770693 66.5572866,83.4123101 C68.0954431,74.4475509 76.4278467,55.7726749 76.4278467,55.7726749 Z" id="Triangle-2-Copy-10" fill="#161817" transform="translate(72.998403, 82.544862) rotate(198.000000) translate(-72.998403, -82.544862) "></path>
                            <path d="M93.4278467,31.7726749 C93.8670142,30.7687355 94.345287,30.8420473 94.4930917,31.926766 C94.4930917,31.926766 97.0041123,49.9227866 97.4889699,58.0908018 C97.9738275,66.2588171 97.5492,85.9882644 97.5492,85.9882644 L82.2947181,86.0255704 C82.2947181,86.0255704 82.0191302,68.3770693 83.5572866,59.4123101 C85.0954431,50.4475509 93.4278467,31.7726749 93.4278467,31.7726749 Z" id="Triangle-2-Copy-7" fill="#161817" transform="translate(89.998403, 58.544862) scale(-1, 1) rotate(164.000000) translate(-89.998403, -58.544862) "></path>
                            <path d="M72.4278467,39.7726749 C72.8670142,38.7687355 73.345287,38.8420473 73.4930917,39.926766 C73.4930917,39.926766 76.0041123,57.9227866 76.4889699,66.0908018 C76.9738275,74.2588171 76.5492,93.9882644 76.5492,93.9882644 L61.2947181,94.0255704 C61.2947181,94.0255704 61.0191302,76.3770693 62.5572866,67.4123101 C64.0954431,58.4475509 72.4278467,39.7726749 72.4278467,39.7726749 Z" id="Triangle-2-Copy-14" fill="#161817" transform="translate(68.998403, 66.544862) scale(-1, 1) rotate(137.000000) translate(-68.998403, -66.544862) "></path>
                            <path d="M80.4278467,38.7726749 C80.8670142,37.7687355 81.345287,37.8420473 81.4930917,38.926766 C81.4930917,38.926766 84.0041123,56.9227866 84.4889699,65.0908018 C84.9738275,73.2588171 84.5492,92.9882644 84.5492,92.9882644 L69.2947181,93.0255704 C69.2947181,93.0255704 69.0191302,75.3770693 70.5572866,66.4123101 C72.0954431,57.4475509 80.4278467,38.7726749 80.4278467,38.7726749 Z" id="Triangle-2-Copy-9" fill="#161817" transform="translate(76.998403, 65.544862) scale(-1, 1) rotate(293.000000) translate(-76.998403, -65.544862) "></path>
                            <path d="M108.562163,45.8728805 C109.00133,44.868941 109.479603,44.9422528 109.627408,46.0269716 C109.627408,46.0269716 112.138428,64.0229921 112.623286,72.1910074 C113.108144,80.3590226 112.683516,100.08847 112.683516,100.08847 L97.4290342,100.125776 C97.4290342,100.125776 97.1534463,82.4772748 98.6916027,73.5125157 C100.229759,64.5477565 108.562163,45.8728805 108.562163,45.8728805 Z" id="Triangle-2-Copy-6" fill="#161817" transform="translate(105.132720, 72.645068) rotate(134.000000) translate(-105.132720, -72.645068) "></path>
                            <path d="M143.535254,16.572967 C144.103842,15.6433745 144.786618,15.7594201 145.055732,16.8224524 C145.055732,16.8224524 153.859463,51.0499998 155.479911,65.8415936 C157.100359,80.6331875 155.681207,116.36157 155.681207,116.36157 L123.62367,120.709704 C123.62367,120.709704 114.468895,66.3015394 115.306857,63.8044928 C116.14482,61.3074461 143.535254,16.572967 143.535254,16.572967 Z" id="Triangle-2-Copy-5" fill="#161817" transform="translate(135.754464, 68.326952) rotate(119.000000) translate(-135.754464, -68.326952) "></path>
                            <path d="M36.6268481,22.2190106 C37.0014138,21.1775941 37.3321704,21.2266389 37.3657391,22.3326828 L39.3890221,88.9973528 L25.3767476,88.6389298 C25.3767476,88.6389298 25.1011597,67.1394446 26.6393161,56.2185338 C28.1774726,45.2976229 36.6268481,22.2190106 36.6268481,22.2190106 Z" id="Triangle-2-Copy-2" fill="#161817" transform="translate(32.373295, 54.665356) scale(-1, 1) rotate(126.000000) translate(-32.373295, -54.665356) "></path>
                        </g>
                    </g>
                </g>
            </g>
        </g>
    </g>
</svg>