<?xml version="1.0" encoding="UTF-8"?>
<svg width="365px" height="256px" viewBox="0 0 365 256" version="1.1" xmlns="http://www.w3.org/2000/svg" xmlns:xlink="http://www.w3.org/1999/xlink">
    <!-- Generator: Sketch 42 (36781) - http://www.bohemiancoding.com/sketch -->
    <title>Combined Shape</title>
    <desc>Created with Sketch.</desc>
    <defs></defs>
    <g id="Page-1" stroke="none" stroke-width="1" fill="none" fill-rule="evenodd">
        <g id="Desktop-HD" transform="translate(-58.000000, -748.000000)" fill="#606060">
            <path d="M329.233094,783.256768 C336.35727,790.046748 342.698473,797.651578 348.107354,805.921845 L399.082832,805.921845 C403.255398,805.921845 406.637931,809.312834 406.637931,813.476868 C406.637931,817.649393 403.258395,821.031892 399.082832,821.031892 L356.585542,821.031892 C360.008754,828.241072 362.77721,835.821734 364.814026,843.696961 L373.910418,843.696961 C378.082984,843.696961 381.465517,847.087951 381.465517,851.251985 C381.465517,855.424509 378.085981,858.807008 373.910418,858.807008 L367.759234,858.807008 C368.200165,862.126244 368.513762,865.485724 368.69495,868.880372 L386.496625,868.880372 C390.669191,868.880372 394.051724,872.271362 394.051724,876.435396 C394.051724,880.60792 390.672188,883.990419 386.496625,883.990419 L368.621577,883.990419 C368.407073,887.385914 368.060038,890.745409 367.585589,894.063783 L373.910418,894.063783 C378.082984,894.063783 381.465517,897.454773 381.465517,901.618807 C381.465517,905.791331 378.085981,909.17383 373.910418,909.17383 L364.481456,909.17383 C358.138657,932.699181 345.251,953.53768 327.892893,969.614016 L279.520616,969.614016 C275.345053,969.614016 271.965517,972.996515 271.965517,977.169039 C271.965517,981.333073 275.34805,984.724063 279.520616,984.724063 L308.001064,984.724063 C288.549716,996.702397 265.646029,1003.61162 241.12931,1003.61162 C216.612592,1003.61162 193.708904,996.702397 174.257557,984.724063 L176.30697,984.724063 C180.482533,984.724063 183.862069,981.341563 183.862069,977.169039 C183.862069,973.005005 180.479536,969.614016 176.30697,969.614016 L154.365727,969.614016 C147.062854,962.850409 140.551261,955.243869 134.985435,946.948953 L79.3999263,946.948946 C75.2273605,946.948946 71.8448276,943.557957 71.8448276,939.393923 C71.8448276,935.221399 75.2243638,931.8389 79.3999263,931.8389 L126.27948,931.8389 C122.762584,924.637589 119.902466,917.056541 117.777164,909.17383 L104.57234,909.17383 C100.399774,909.17383 97.0172414,905.78284 97.0172414,901.618807 C97.0172414,897.446282 100.396778,894.063783 104.57234,894.063783 L114.673032,894.063783 C114.198583,890.745409 113.851548,887.385914 113.637044,883.990419 L91.9861332,883.990419 C87.8135674,883.990419 84.4310345,880.59943 84.4310345,876.435396 C84.4310345,872.262872 87.8105707,868.880372 91.9861332,868.880372 L113.563671,868.880372 C113.744859,865.485724 114.058456,862.126244 114.499387,858.807008 L104.57234,858.807008 C100.399774,858.807008 97.0172414,855.416019 97.0172414,851.251985 C97.0172414,847.079461 100.396778,843.696961 104.57234,843.696961 L117.444595,843.696961 C123.504158,820.268026 136.039258,799.44621 153.025519,783.256775 L214.065591,783.256775 C218.241153,783.256775 221.62069,779.874276 221.62069,775.701752 C221.62069,771.537718 218.238157,768.146729 214.065591,768.146729 L172.254582,768.146729 C192.128755,755.39472 215.765845,748 241.12931,748 C266.492776,748 290.129866,755.39472 310.004039,768.146729 L304.69303,768.146729 C300.517467,768.146729 297.137931,771.529228 297.137931,775.701752 C297.137931,779.865786 300.520464,783.256775 304.69303,783.256775 L329.233102,783.256775 Z M395.310345,901.618807 C395.310345,897.446282 398.691788,894.063783 402.858371,894.063783 L415.451974,894.063783 C419.620634,894.063783 423,897.454773 423,901.618807 C423,905.791331 419.618557,909.17383 415.451974,909.17383 L402.858371,909.17383 C398.689711,909.17383 395.310345,905.78284 395.310345,901.618807 Z M58,851.251985 C58,847.079461 61.3814428,843.696961 65.5480262,843.696961 L78.141629,843.696961 C82.3102887,843.696961 85.6896552,847.087951 85.6896552,851.251985 C85.6896552,855.424509 82.3082124,858.807008 78.141629,858.807008 L65.5480262,858.807008 C61.3793664,858.807008 58,855.416019 58,851.251985 Z" id="Combined-Shape"></path>
        </g>
    </g>
</svg>