<?xml version="1.0" encoding="UTF-8"?>
<svg width="817px" height="102px" viewBox="0 0 817 102" version="1.1" xmlns="http://www.w3.org/2000/svg" xmlns:xlink="http://www.w3.org/1999/xlink">
    <!-- Generator: Sketch 42 (36781) - http://www.bohemiancoding.com/sketch -->
    <title>BATACONS</title>
    <desc>Created with Sketch.</desc>
    <defs></defs>
    <g id="Page-1" stroke="none" stroke-width="1" fill="none" fill-rule="evenodd">
        <g id="Desktop-HD" transform="translate(-55.000000, -895.000000)" fill="#FFFFFF">
            <path d="M55,995 L55,897 L100.5,897 C111.7,897 120.52,900.08 126.12,905.68 C130.6,910.16 132.84,915.62 132.84,922.34 L132.84,922.62 C132.84,933.68 126.96,939.84 119.96,943.76 C131.3,948.1 138.3,954.68 138.3,967.84 L138.3,968.12 C138.3,986.04 123.74,995 101.62,995 L55,995 Z M111.42,926.26 L111.42,925.98 C111.42,919.54 106.38,915.9 97.28,915.9 L76,915.9 L76,936.62 L95.88,936.62 C105.4,936.62 111.42,933.54 111.42,926.26 Z M116.88,965.18 C116.88,958.6 111.98,954.54 100.92,954.54 L76,954.54 L76,976.1 L101.62,976.1 C111.14,976.1 116.88,972.74 116.88,965.46 L116.88,965.18 Z M147.68,995 L189.68,896.3 L209.56,896.3 L251.56,995 L229.02,995 L220.06,973.02 L178.62,973.02 L169.66,995 L147.68,995 Z M186.32,953.98 L212.36,953.98 L199.34,922.2 L186.32,953.98 Z M289.5,995 L311.06,995 L311.06,916.88 L340.88,916.88 L340.88,897 L259.68,897 L259.68,916.88 L289.5,916.88 L289.5,995 Z M349,995 L391,896.3 L410.88,896.3 L452.88,995 L430.34,995 L421.38,973.02 L379.94,973.02 L370.98,995 L349,995 Z M387.64,953.98 L413.68,953.98 L400.66,922.2 L387.64,953.98 Z M513.92,996.68 C532.82,996.68 544.02,989.96 554.1,979.18 L540.38,965.32 C532.68,972.32 525.82,976.8 514.62,976.8 C497.82,976.8 486.2,962.8 486.2,946 L486.2,945.72 C486.2,928.92 498.1,915.2 514.62,915.2 C524.42,915.2 532.12,919.4 539.68,926.26 L553.4,910.44 C544.3,901.48 533.24,895.32 514.76,895.32 C484.66,895.32 463.66,918.14 463.66,946 L463.66,946.28 C463.66,974.42 485.08,996.68 513.92,996.68 Z M618.92,996.68 C588.68,996.68 566.98,974.14 566.98,946.28 L566.98,946 C566.98,918.14 588.96,895.32 619.2,895.32 C649.44,895.32 671.14,917.86 671.14,945.72 L671.14,946 C671.14,973.86 649.16,996.68 618.92,996.68 Z M619.2,976.8 C636.56,976.8 648.6,963.08 648.6,946.28 L648.6,946 C648.6,929.2 636.28,915.2 618.92,915.2 C601.56,915.2 589.52,928.92 589.52,945.72 L589.52,946 C589.52,962.8 601.84,976.8 619.2,976.8 Z M690.32,995 L711.6,995 L711.6,932.7 L759.06,995 L777.4,995 L777.4,897 L756.12,897 L756.12,957.34 L710.2,897 L690.32,897 L690.32,995 Z M835.78,996.4 C856.92,996.4 871.76,985.48 871.76,966.02 L871.76,965.74 C871.76,948.66 860.56,941.52 840.68,936.34 C823.74,932 819.54,929.9 819.54,923.46 L819.54,923.18 C819.54,918.42 823.88,914.64 832.14,914.64 C840.4,914.64 848.94,918.28 857.62,924.3 L868.82,908.06 C858.88,900.08 846.7,895.6 832.42,895.6 C812.4,895.6 798.12,907.36 798.12,925.14 L798.12,925.42 C798.12,944.88 810.86,950.34 830.6,955.38 C846.98,959.58 850.34,962.38 850.34,967.84 L850.34,968.12 C850.34,973.86 845.02,977.36 836.2,977.36 C825,977.36 815.76,972.74 806.94,965.46 L794.2,980.72 C805.96,991.22 820.94,996.4 835.78,996.4 Z" id="BATACONS"></path>
        </g>
    </g>
</svg>